/* XPM */
static char *enemie[] = {
/* columns rows colors chars-per-pixel */
"64 64 240 2 ",
"   c #18101E",
".  c #0C052D",
"X  c #0F082E",
"o  c #140C2C",
"O  c #181434",
"+  c #221D35",
"@  c #292439",
"#  c #761330",
"$  c #742C3A",
"%  c #6D463E",
"&  c #292846",
"*  c #36324E",
"=  c #3C324D",
"-  c #3E3254",
";  c #3E3C5A",
":  c #1D3963",
">  c #3C3E64",
",  c #413857",
"<  c #793546",
"1  c #06487F",
"2  c #184677",
"3  c #36436A",
"4  c #294A7B",
"5  c #364A78",
"6  c #4C4658",
"7  c #745053",
"8  c #4B4866",
"9  c #505074",
"0  c #585578",
"q  c #705470",
"w  c #49647D",
"e  c #7A6870",
"r  c #841137",
"t  c #832C3B",
"y  c #A34239",
"u  c #CD5F30",
"i  c #9F164A",
"p  c #87364A",
"a  c #923951",
"s  c #AC3059",
"d  c #934D50",
"f  c #AF5056",
"g  c #9A624D",
"h  c #85645B",
"j  c #996755",
"k  c #A76953",
"l  c #A76B55",
"z  c #B6785B",
"x  c #925A6E",
"c  c #AC536C",
"v  c #B65A74",
"b  c #966D6F",
"n  c #B57D62",
"m  c #B6677C",
"M  c #AF7275",
"N  c #CA5242",
"B  c #C67575",
"V  c #D17777",
"C  c #D57B7C",
"Z  c #DC7C7D",
"A  c #E17D7E",
"S  c #AA845E",
"D  c #BB8466",
"F  c #B28777",
"G  c #C88B69",
"H  c #C9936D",
"J  c #D58D73",
"K  c #CA9576",
"L  c #D59A75",
"P  c #DB9C74",
"I  c #D5A963",
"U  c #DDA078",
"Y  c #DDB27C",
"T  c #E2A177",
"R  c #E3A47A",
"E  c #DBD972",
"W  c #064B83",
"Q  c #094C85",
"!  c #064D8A",
"~  c #0B4F89",
"^  c #174C82",
"/  c #07518C",
"(  c #08548D",
")  c #15568E",
"_  c #054F92",
"`  c #075594",
"'  c #075797",
"]  c #095691",
"[  c #0A5995",
"{  c #07599B",
"}  c #0A5D9A",
"|  c #125A95",
" . c #165894",
".. c #125E9B",
"X. c #26548A",
"o. c #2F578B",
"O. c #0A619E",
"+. c #13619D",
"@. c #1C649C",
"#. c #26679C",
"$. c #3F619B",
"%. c #095DA2",
"&. c #135EA1",
"*. c #0A63A4",
"=. c #0765A9",
"-. c #0A66AA",
";. c #0A6BAC",
":. c #1364A3",
">. c #1867A5",
",. c #146BAC",
"<. c #196CAC",
"1. c #086AB3",
"2. c #0B6EB1",
"3. c #166EB1",
"4. c #0B71B4",
"5. c #0A76BA",
"6. c #1576B6",
"7. c #256CA4",
"8. c #2B6EA3",
"9. c #2D72A5",
"0. c #2A74AB",
"q. c #3273AD",
"w. c #3578AA",
"e. c #347AAC",
"r. c #367AB1",
"t. c #4C588B",
"y. c #695983",
"u. c #4D6892",
"i. c #6E6D91",
"p. c #5075A9",
"a. c #8B5B80",
"s. c #8F6F8C",
"d. c #B37387",
"f. c #B97384",
"g. c #C87586",
"h. c #C8768D",
"j. c #D47D83",
"k. c #DD7D81",
"l. c #E37E81",
"z. c #1982BE",
"x. c #2E83BE",
"c. c #3D83B2",
"v. c #3A85B8",
"b. c #4186B3",
"n. c #468CB7",
"m. c #458DBA",
"M. c #568DB7",
"N. c #4791BC",
"B. c #4C93BD",
"V. c #728EB1",
"C. c #2D8EC6",
"Z. c #4B97C3",
"A. c #539BC3",
"S. c #589DC4",
"D. c #59A3C9",
"F. c #59AACF",
"G. c #5CB2D4",
"H. c #62ABCD",
"J. c #6DA8CA",
"K. c #69ADD0",
"L. c #69B4D4",
"P. c #73BAD7",
"I. c #6CC1DA",
"U. c #77C5DD",
"Y. c #7BC9E0",
"T. c #94859A",
"R. c #B99485",
"E. c #B48B93",
"W. c #9690AB",
"Q. c #AB97A9",
"!. c #AF95AD",
"~. c #B59BB3",
"^. c #B99CB6",
"/. c #83A4BD",
"(. c #B2ACB3",
"). c #BAA5BB",
"_. c #DA8588",
"`. c #CE928D",
"'. c #C78494",
"]. c #DA979B",
"[. c #E48182",
"{. c #EC8385",
"}. c #E7888A",
"|. c #F28687",
" X c #F28688",
".X c #F28A8C",
"XX c #E68F93",
"oX c #F38E92",
"OX c #E69398",
"+X c #F39499",
"@X c #D5A28E",
"#X c #E4A887",
"$X c #C694A3",
"%X c #D99BA3",
"&X c #E69DA5",
"*X c #F59CA2",
"=X c #C6A8AF",
"-X c #D9A6A9",
";X c #DBAAB6",
":X c #C5B9B9",
">X c #D6B6B7",
",X c #E7A3AC",
"<X c #F6A0A7",
"1X c #F5A3AC",
"2X c #E6AAB5",
"3X c #F7ABB5",
"4X c #E4B2BE",
"5X c #E8B3BD",
"6X c #F8B1BD",
"7X c #DDD88C",
"8X c #CEC3BC",
"9X c #E5CBAA",
"0X c #8BB6C6",
"qX c #B5A5C1",
"wX c #C0A5C2",
"eX c #C3AAC4",
"rX c #CCB9C6",
"tX c #D8BAC3",
"yX c #EAB5C3",
"uX c #E4B9C3",
"iX c #ECBAC6",
"pX c #EDBBC9",
"aX c #F8B5C2",
"sX c #F3BDCC",
"dX c #FCBCCB",
"fX c #89D2E5",
"gX c #CEC6C5",
"hX c #D2C8C8",
"jX c #D4CCCC",
"kX c #D8D5CD",
"lX c #DDDDD1",
"zX c #E6C4C9",
"xX c #EBC3CC",
"cX c #F4C1CE",
"vX c #FDC0CE",
"bX c #F5C3D1",
"nX c #FEC5D5",
"mX c #F2CED6",
"MX c #F9CCD7",
"NX c #FBDEE3",
/* pixels */
"W 1 | W W ( ( ( ( +.A.} Q ) ~ ~ Q ( ( ( ( ( W 1 1 W / m.#.Q 1 ~ ~ Q ( #.D.] ] [ q.b.0.` ] ! ! 1 +.c.~ 1 Q 1 1 W Q W ! >.v.| ( / ",
"Q W &.( ( ( ( ( ( c.G.N.:...&.&./ ( ( ( ( Q 1 1 1 ! e.8.W 1 1 1 ~ W / D.c.] ( / _ -.p.Z.B.M.V.n.B.Q 1 ~ 1 Q  .` &.&.>.>.` e.] ( ",
"( ] >.>.+.( ( ( @.c.:.0.r.@.] Q | ] ( ( ] Q W 1 W 8.0.Q Q W 1 1 Q | c.H.[ ( ^ X.u.i.mXT.Q.zXhX0X/._ [ 1 ~ ( W W ! _ ] ( ( 7.e.( ",
"[ ] >.] +.:.+.b.n.+.W ! >.8.8.~ Q +.] ( ( ( W 1 #.Z.c.N.n.w.9.w.#.b.P.n.) Q.NXQ.NXxXmXsXxXMXtXMX=XtXi.+.] Q Q ~ _ ` ] / ( ( e.b.",
"F.n.Z.b.b.B.A.r.] / W ! ~ ! ~ 8.b.@.:.O.@.w.w.8.G.A.8. .Q 1 1 )  .q.K.V.T.nXcXnXbXnXnXbXtXnXMXnXdX6Xs.y._ ! ( ( ` ( { ( ( ( ( A.",
"B.9.9.r.9...] / ( ( ! ` _ _ W Q b.D.9.c.r.#.] ..0.x.1 1 1 1 1 1 1 ) s.^.4XMXcXnXnXnXnXpXsXnXnXnXaX}.l.j./ ` ( { ( ] { ` ( ( ( c.",
"b.( ( | [ ( ~ W W / ` ( ~ | ! ~ [ c.#.( ..:.] W @.c.1 1 1 1 q s.0 s.6X-XcXvXnXxXsXpXmXyXnXnXnXpX1Xk.l.B o.{ { ( ( ( ] { ( ( ( +.",
"b.[ ( ( ..( Q 1 W ! / / ( &.`  .qXX.c.] ` ( W Q 0.| ~ ( 1 1 5 _.|.Z 6XMXyXMXiX2XbXbXxXnXnXnXnXnXXXk.l. Xi.x ` ` ( ( ( ] } ( ( ( ",
"e.@.( ( ( ..~ Q ! W W Q W.rXQ.W.nXW.~.rXt.| ] ! $.Q W ) ] Q 2 m |.|.3XdXnXsXnXnXnXzXnXnXnXnXnXdXoX|.l.[.V j.{ ` ` ( ( ( { ' / / ",
"9.m.( ( ( ] ..{ W W Q ^ E.nXiXtXnXsXuXnX>X^.s.~.tXQ W ~ u.^ x {.[.|. X+XnXnXnXnXnXxXnXnXnXnXnXaX.X{. XZ |.g.X.( { { ( ` ( W ! / ",
"7.G.] ` ` { -.%.( ~ X.T.pXsXnXnXnXnXdXnXnXsXyXnXtX!.eX0 !.'.k.l.|.|.|. X*XaXnXnXdXpXnXnXnXnXdXdX*X X[.l.Z l.s./ ( ( O.{ W 1 W W ",
"#.m.8.( ( ( ` >.` ( W.mXpXuXpXnXnXnXnXnXsXpXnXnXnXdXdX4XyX X{.|.|. X|.l.{.3XnXzXMXsXnXnXnXnX*Xl. X X Xk. X{.j.9 ( ( / ' W 1 1 1 ",
"9. .c.[ ..:.[ :.} ) ).sXMXiXnXbXbXxXyXyXsX;X&XsXnXnXnXnXnX*X X X|.2XXXC l.*XdX4XmXnXnXnXsXyXk.l. X|.Z [.|.|.{.X.( ( ( ( ! 1 1 1 ",
"9.Q b.#.W ] <...(  .bXbX4X;XnXnXxXMXpXsXnXnX*XyXnXnXnXnXaXl. X X|.,X1X[. X.X3X2XnXnXnXnXnXyX+Xl. X|.l.[.|.{.C s.) ( ( ( ! 1 1 +.",
"~ 1 ) B.) W +.>.) p.qXnXsXnXnXxXhXnXnXnXnXnXoXyXnXnXnXnX6X5X2Xl.|.OX<X XZ l.OX,XnXnXnXnXnXpX*X+X|.{.C  X|.{.|.f.t.( ( ( { Q 9.c.",
"1 1 1 #.c.Q ( >.o.NXxXnXnXnXnXxXpXnXnXnXnXdXl.&XnXnXnXnX.X&XnXl.|.|. X{.l.k.].MXnXnXnXnXnXnXnX3X Xj.Z  X|.|.|.|.'.i.#.[ p.B.w.W ",
"/ 1 1 W c.c.( ] ' eXnXnXnXnXsXuXMXnXnXnXnX3X XXXnXnXnXnX&X&X1XXX{.|.|.{. XA 5XsXnXcXsXnXnXnXdXoX|.{.l.{.|.|.|.|.C [.s.B =XL.m.8.",
"n.w.Q W c.c.n.0.%.eXsXnXnXnXsXbXnXnXnXnXnX*X Xj.4XnXnXpX+Xl. XyXOX|.|.|.|.{.iXnXnXxXdXyXyXiXoX X[.Z {.C Z |.|.|.|.{.|.{.;Xq.#.w.",
"Q #.n.c.c.W +.B.H.qXnXnXnXnXuXiXnXxXuXnXnXdX Xl.}.sXbXaXOXl.XX%X3X{.|.|.|.&XsXnXpXhXnXiXaXaX X XZ |.|.|.Z  X[. X|.|.|.+XpXW.>...",
"+./ | D.9.( [ O.<.V.tXnXnXnXzXnXnXpXbXcXnXdXoX|.Z aXsX,X,XOX[..X X X|.|.{.C nXnXyXdXnXdXoX X Xl.J |.|.Z l. XA A j..X6XnXsXMX) { ",
"( +.( +.c.O.[ O.(.mXsXnXnXnXuXiXnXiXnXnXnXnX+X XV .X6X{.oXZ  X X X|.|. XZ {.nXnXsXdXoXoX|.|.J l.l..X X Xl.l.{.Z C .XdXnXnXmXu.` ",
"( ( +.( N.@.O.O.1.Q.sXnXnXnXpXmXnXsXyXnXnXnXoX XZ A  X X[.Z Z  X[.[.A  X{. XaXvXnX+X X X|.{.k. X X X XJ  X X|.|.J 1X;XsXnXmXi.( ",
"( ( ] O.9.c.[ O.1.).nXnXnXsXsXuXxXsXsXnXnXdX X XZ l.{.A [.l.{. X X[.{.Z C  X.X<X*X|. X X|.Z {. X X|.A XX X X|.Z  X+XnXsXcXtXi.` ",
"( ] ] O.9.e.O.O.=.p.sXnXnXpXnX>XbXnXnXnXnX3X|.|. XV |.{. X X[.zXXX}. X[.|.A |.{.|.|.|. X{.}.].>XzXhXlXlX8X}. X|. XoX,X4XnXcX~.] ",
"( ( [ 3.c...} =.*.q.5XyXxXtXnXzXMXnXnXnX X|.].}. Xl.C uXuX}.}.iXuXiX-XuXXX|.C _._._.-X>XkXlXlXlXlXkXkXhX:X8X X X X X,XdXnX;Xu.` ",
"( ] +.O.N.} } =.;.;.W.bXyXnXnXnXuXcXnXnX*X_.dXl. X X[.&XnX-XxXiXnX5X,XbX,X[.|.E.^.hXlXlXlXlXjXrXeXwX^.!.=XjX8X{.|..X5XnXnXnXT.! ",
"1 +.( 8.B.' { *.*.=.s.pXbXdXnXnXiX>XnXnXaXC aX[.|.{.4X].nX3XmX<X6XaXoX1Xj. XA A ).lXlXjX8XeX=X^.~.E.{.A $XeXhX>X X+X1XnXnXuXeXW ",
"Q ( 1 N.9.! ` _ ' =.s.;XyXnXnXMXmXsXbXnXsXcX6X{.|.%X-XpX9XY Y J |.Z  X|.{.Z  X_.gXkXjX).!.E.^.wXwXwX^.}..X'.wXjX-X{.+XnXcX).1 1 ",
"] 1 9.G.| / W ! ! ` i.*XdXbXnXnXzXnXnXnXdX&XoX X4X4XpX7XE E I I z z k B '.Q.!.~.wXwXW.h._.qXwXwXrXtXeX^.[. X_.=XkX-XnXnXMXi.Q 1 ",
"@.n.G.G.` 1 W W ! ! o.l. X+XdXnXbXpXnXnXnXaX|. X,XMX9XE H D S j k k k g E.~.wX=X!.!.^.^.^.wXeXjXlXlXlXjX=X|. X'.(.:XuXxXW.] Q Q ",
"N.c.v.N. .W W W W Q ` d. X+X1XnXnXiXuXnXnXnX3X XXX4X9XE K j Y S k k k k E.rXjXqX^.wXrXkXjXhXlXlXlXlXlXlXlXOX|.|.E.~.`.(.0.q.c.N.",
"( 1 | w 9 ` ! W W W ] <.m [.*XnXnXpXyXsXnX6XoX%XxXcX#XH j j @XK g k l l gXjXlXjXwXjXlXlXlXlXlXlXlXlXlXlXlX>Xl.|.V z P T.9.#.#.( ",
"Q ~ X.6 6 w X.Q W Q ..u.l.{..X3XnXnXyXnXnXnXaXOX5X3X.XC d j (.F d z D D 8XkXlXlXlXlXlXlXlXlXlXlXlXlXlX8X-X].{.l.x z H b [ W 1 1 ",
"1 ] > 8 . 8 5 Q W Q .. .t.l.|.+XdXaXsXpXyXdX3X X{.;XdX.X}.B l k g H K U @X:XlXlXlXlXlXlXlXlXlXlXkX>X|.J l.l.l.s.i.7 l e ( ( 1 1 ",
"1  .> 9 o + 0 5 ! ( ( ( ( y.A |.*X XnXnXpX,XoX X{.,X,XsX+XJ l.{.j G R R Y U K 8XlXlXlXlXlXlXkX>X}..Xl.l.s.p.(.N...t.y.] ( ( 1 1 ",
"~ ` , 8 @ . @ 0 o.( ( ( ] f.A l. X XaXnXsX,X_.{.|.&XnXaX Xl.|.j.Q.K #XR T I j j R.8XlXkXlX8X(.!.j.f.j.q.3.H.fXD.} } { ' [ ( ( / ",
"| X.- 8 ; X . & 0 X.( ( +.B.y.|. X X*XnXnXnXyX*X|.OXuX3X+Xl.l.C Q.`.n P G z D H G k k E.qXwXeXeXqXJ.P.K.K.fXfXG.O.O.[ [ ( ( ( [ ",
"( 5 - - 9 @ . . & 0 X.7.H.B.1 e l. X|.*XsXdX*XoX|.}.sXdX}.C {.l.$X=Xz g G T L H P L n l wXeXlXlXkXqXC.z.Z.K.U.L.O.[ [ [ [ ( ( [ ",
"( 4 - - 8 8 o . . @ u.U.U.B.W 1 x B l.{.&Xk.|.|.|.|.[.B l.l.l.l.!.=Xg D P P L L P T G n wXwXjXlXlXlXp.6.%.%.v.L.c.] [ [ ( ( [ [ ",
"B.p.= = , 9 ; . o = 7 e K.L.9.W W g.|.A l.J {.[.|.|.{.F F [.l.C ~.(.j G U T H D T T P `.wXwXqXlXlXlXM.1.%.} ` 7.D.7.] ] ] ( +.m.",
"+.X.- - = , 9 &   o q P F u.w.9.! a.q  X X X X X|.|.J K j m l._.Q.:XM D G L z U T T T E.wXW.p.qXlXqX4.1.,.{ +.*.:.A.+.] ] c.D.n.",
"( ~ - = - - 8 8 + o o q K @Xe @.8.Q W t.y.V l.l.|. XJ g g Z J =X8X(.n D L P D K H T R ~.~.1.6.z.6.2.2.-.%.,.} [ ( 7.H.A.H.H.9.( ",
"( ( 4 , , = , 8 8 O . . 6 F R @XV.O.} :.:.} } k.m j.C l g (.lXjXQ.Q.j j J G D B H R @X).qX1.5.5.4.4.4.;.-.%.{ } [ [ c.U.I.+.( ( ",
"[ ( ` 5 = , , , 8 , o . . * b I #XE.r.} ' } %.t.>.&.p.x M :XgX!.Q.$ y y u d N a G U $X=X~.1.4.4.6.4.;.;.-.%.-.O.*.[ c.I.c.[ O.[ ",
"] / _ X., , , - - 8 6 O o . + 7 P T L E.u.} } *.*.&.q r a ].d.d.7 $ 6 a d t N d N n ~.qXp.1.1.5.z.4.2.2.;.*.;.-.6.4.x.I.O.] ( ( ",
"( / ! ~ : , = - - - ; 8 * O o . 7 L P z L H R.R.R.F J K K c h.c m d < d c c i s u p F.Y.5.1.1.5.4.6.2.;.;.*.;.;.;.O.#.A.( ( ( ( ",
"( ( _ Q %.> - = - ; - - = + o . . 7 P T T T T T T T T L T L f g.h.v v v c v s f s b Y.fXG.5.5.5.4.4.4.;.*.*.*.O.+.O.+.c.( ( ( ( ",
"/ ( _ _ { &.> - - - - - ; 6 + o . . h T T T T T T T P U P L f g.h.f.'.m M s i s d.B.Z.Z.G.I.Z.5.4.2.6.2.;.*.*.+.] ] 0.c.( ( ( ( ",
":.>.%.( ] >...4 3 , - = , , , @ o . + D H H G J P U T T P G d v h.f.%Xm _.c s v y.z.1.4.5.z.D.P.Z.4.2.z.6.;.O.[ +.c.B.A./ ( ( ( ",
"] ( :.[ ( ..<.:.| @.> = , - , 8 O o . % g g k g g l D G z k i j.c c E.p d.s c y.z.2.2.2.5.5.6.4.B.L.v.O.2.O.] c.A.w.Q w.9.( ( [ ",
"( ] { } ( ] <.[ &.} X.- , - - - * o   $.M.D.A.v.#.p g k k d s f.s d < < q y.$.6.3.;.;.4.4.1.6.} *.0.L.Z.;.O.c.N.@.| 1 W #.b.+.] ",
"] ` { ( } | Z.Z.m.m.D.w - - - - @   3 ..>.v.A.P.U.V.r t t i a # < t.9.L.6.3.,.-.*.;.;.1.4.1.2.{ %.*.2.G.P.L.c.( ( [ 1 1 Q #.F.w.",
"L.A.v.b.B.D.D.e.` ! 9.m.> - - - + 4 W ! %.*.*.*.+.v.T.# # $ p < 9 =.A.A.*.{ { { } *.=.4.O.6.O.O.O.-.=.,.U.L.( Q Q ( 1 1 ( ( B.U.",
"U.H.B.0.[ <.3.+.( Q @.X.W > > : 2 Q {  .,.*.O.%.%.u.$Xs d.x p 0 %.%.S.r.*.` ` { ` } =.=.6.,.,.O.O.{ O.O.K.B.( 1 1 ] Q ( ( +.8.U.",
"9.` ] ( ( +.<.[ ( ( @.Q W  .! W W W ] :.3.;.%.*.{ x h.m r p 8 3.*.%.Z.r.{ ` ` ` ` { =.2.+.O.*.O.} [ ' O.B.m.( ( ( +.( ( ( ( O.D.",
"( ` ] ( ( ( <.[ ( ( #._ | Q 1 1 W W Q &.3.<.} { u.$Xs p a q %.6.} } b.m.[ / ! / / { } ,.O.[ O.O.( ` ] O.B.b.( ( ( +.( ( +.( +.( ",
"( { { ( ( ( :.+.( ( r...) W 1 1 Q W ( ` *.6.<.} x v c d x i.i.i.s.q o.N.( ( ! W ` / ( ,.] [ ] [ O.] ( ] c.B.( ( ( +.[ >.[ | 9.( ",
"( { { { ( ( [ >.( ] B.>...~ Q Q / ( { ( ( +.<.u.c E.r p # d D z z j * N.O.` ` ] ( W ( *.O.( ] ( ] ( ! ! +.A.` ( ( ] ,.>.+.B.| ( ",
"' ( ( ( [ ] ( O.>.} S.6.<.] ( ( ( { ] ] ] ` ] s.h.x x t p i.w ] e 7 4 S.` ! ` ` / W ] ] +.( ( / 1 ( W 1 W F.0.( ( ( [ 3.S.9.( ( ",
"( / W / ( ] ' ] [ >.K.O.+.:.( ( { { { { { ] } 0 i a 7 0 5 D.O.( q 7 2 H.*.( ` { ] ( ( ( +.] / W 1 1 Q W c.G.G.w.( [ @.F.Z.O.] } ",
"+.[ ~ 1 Q ] ( ` { { D.} { :.` ` } ` ( ( ( ( ( / X.X.{ ] ( L.O.( 2 @ 2 H.c.( ( } ] ( ( ( +.Q 1 1 1 1 1 c.D. .) 7.q.N.L.A.O.,.` ] ",
"1 1 | 1 W ( ( ( ] { B.] [ [ ( ( ` ( ( ( ( ( / ~ _ _ ] / @.I.[ ( & + <.U.H.[ ( ] ` ( ( ] +.( 1 1 1 1  .F.8.W W ! W W c.7.( >.[ [ ",
"1 1 ( Q 1 ( ( ( ( } b.( } Q Q ( { ( ( ( ( / W 1 W W ! W c.I.B.w.&  .B.U.U.D.O.] O.( ( +.[ W 1 1 1 1 N.n.( 1 1 W W 1 ( B.O.>.+.Q ",
"1 1 ~ Q 1 / ( ( ( ' m.[ ~ W W W ` ( ( ( ( / W 1 1 W ! ) D.n.c.c.n.A.D.D.U.D.m.w.*.( +.[ ( ( 1 1 1 8.B.~ ! 1 1 W W 1 Q #.x.>.( ~ "
};
