/* XPM */
static char *water[] = {
/* columns rows colors chars-per-pixel */
"64 64 176 2 ",
"   c #06487F",
".  c #064B83",
"X  c #094C85",
"o  c #064D8A",
"O  c #0A4F89",
"+  c #07518C",
"@  c #08548D",
"#  c #13568F",
"$  c #054F92",
"%  c #075593",
"&  c #095691",
"*  c #075896",
"=  c #0A5A95",
"-  c #065699",
";  c #085699",
":  c #07599B",
">  c #0B5D9A",
",  c #105694",
"<  c #135A95",
"1  c #1C5D94",
"2  c #125D9B",
"3  c #0A619E",
"4  c #1F6097",
"5  c #13619D",
"6  c #1C649C",
"7  c #226297",
"8  c #23669C",
"9  c #24699F",
"0  c #2A6B9E",
"q  c #065DA2",
"w  c #095EA4",
"e  c #085FA8",
"r  c #135EA1",
"t  c #0760A3",
"y  c #0A64A4",
"u  c #0C69A7",
"i  c #0765AB",
"p  c #0964AA",
"a  c #0768AD",
"s  c #0A6AAC",
"d  c #1364A3",
"f  c #1D66A2",
"g  c #1369A6",
"h  c #1B68A3",
"j  c #1467A9",
"k  c #1867A9",
"l  c #146BAB",
"z  c #196CAC",
"x  c #0B70AE",
"c  c #1571AE",
"v  c #1B71AD",
"b  c #0767B4",
"n  c #0866B3",
"m  c #076CB4",
"M  c #0A6DB2",
"N  c #0A6DBA",
"B  c #136DB2",
"V  c #196FB2",
"C  c #106FB9",
"Z  c #0771B6",
"A  c #0B71B4",
"S  c #0771BB",
"D  c #0A75BA",
"F  c #0C79BB",
"G  c #1473B3",
"H  c #1B73B4",
"J  c #1579B6",
"K  c #1C7BB6",
"L  c #1373B9",
"P  c #1B75B9",
"I  c #147BBB",
"U  c #1A7CBA",
"Y  c #246CA3",
"T  c #2B6EA2",
"R  c #226FAB",
"E  c #2771A6",
"W  c #2D72A5",
"Q  c #2572AC",
"!  c #2C74AB",
"~  c #2D79AF",
"^  c #3174A6",
"/  c #3378A7",
"(  c #3276A9",
")  c #347AAC",
"_  c #397DAD",
"`  c #2C76B1",
"'  c #257BB5",
"]  c #2C7AB3",
"[  c #2478B8",
"{  c #297CBA",
"}  c #347DB2",
"|  c #387FB0",
" . c #097BC0",
".. c #177DC2",
"X. c #197DC0",
"o. c #1682BE",
"O. c #1B82BE",
"+. c #3B80AF",
"@. c #2582BC",
"#. c #2C83BC",
"$. c #3581B5",
"%. c #3C83B3",
"&. c #3F88B5",
"*. c #3583BA",
"=. c #3C86B9",
"-. c #3D8ABD",
";. c #4186B3",
":. c #448AB6",
">. c #498DB7",
",. c #4087BA",
"<. c #448CBA",
"1. c #498EBA",
"2. c #4691BD",
"3. c #4C93BD",
"4. c #5096BE",
"5. c #1483C3",
"6. c #1E84C1",
"7. c #1C8AC3",
"8. c #2C87C0",
"9. c #268CC1",
"0. c #338CC2",
"q. c #3A8DC2",
"w. c #3790C7",
"e. c #3E92C4",
"r. c #3593C8",
"t. c #448FC1",
"y. c #4593C3",
"u. c #4B95C3",
"i. c #4799C7",
"p. c #4D9AC4",
"a. c #4697C9",
"s. c #4D9CC9",
"d. c #5097C1",
"f. c #539BC4",
"g. c #599FC6",
"h. c #539DC9",
"j. c #4CA1CC",
"k. c #51A1C6",
"l. c #5AA0C6",
"z. c #55A4CB",
"x. c #5BA4CC",
"c. c #57A9CC",
"v. c #5CABCD",
"b. c #4FA6D2",
"n. c #55A7D1",
"m. c #5CA7D0",
"M. c #5CACD2",
"N. c #5CB2D3",
"B. c #5BB3DA",
"V. c #61A7CC",
"C. c #62ABCD",
"Z. c #64ADD1",
"A. c #68AED2",
"S. c #65B2D2",
"D. c #6CB3D4",
"F. c #6EB9D6",
"G. c #67B4D8",
"H. c #69B7D8",
"J. c #6CBCD9",
"K. c #70B6D5",
"L. c #75BAD7",
"P. c #71B5D8",
"I. c #73BED9",
"U. c #7BBEDA",
"Y. c #6EC3DB",
"T. c #74C3DD",
"R. c #7BC3DD",
"E. c #76C8DF",
"W. c #79C9DF",
"Q. c #7CC6E0",
"!. c #7AC9E0",
"~. c #82C5DE",
"^. c #84CDE3",
"/. c #8BCCE3",
"(. c #8DD5E7",
"). c #94D2E5",
/* pixels */
".   < . . @ @ @ @ 6 j.< . # O + . @ @ @ @ +       . o 2.8 .   O O X @ Y l.& @ & ) =.Y % @ @ .   4 +.@   X     . o   X d *.< @ X ",
"X . r @ @ @ @ @ @ +.N.<.d 2 r r @ @ @ @ @ O       + ) 0 . .     O . + g.;.@ & @ O d ) d.4.>.;.;.3.X   @   . , < r 2 k k % _ & @ ",
"@ & k k > @ @ @ 6 } k ) ,.r , X < % @ @ @ O     . T ! X X . .   . , ;.C.= @ @ . # & @ % 8 >.C.Y.k.@ <   O @     o ; @ @ @ 9 ) & ",
"= @ k @ d d 5 ;.>.2 . X r T T X O 5 & @ @ @   . 8 s.+.2.:./ / / 0 ;.J.>.@ @ & X 2 ; % % + % : I.v.z k 5 = X X + ; * @ @ @ @ _ %.",
"V.>.2.:.;.u.f.+.% O . o O X O T ;.6 d > 6 _ / W M.j.W 1 .   . @ 4 / Z.%.@ & @ > 2 r 2 > @ @ @ k.g.2 & @ @ @ @ @ * @ * @ @ @ & f.",
"3.W W } ^ 2 @ + @ @ o % $ $ . X ;.x.W %.} 8 @ 5 ' +.              X W E g 5 d < X + @ d g = @ W A.; @ @ @ @ & - @ & : % @ @ & +.",
";.@ @ = & @ O . X + : @ O = O O @ _ Y @ 2 d @ . 6 +..             o 9 & @ 5 & @ @ * @ @ = l : = C.Q @ % @ = - & @ @ & : @ @ @ 5 ",
":.= @ @ 2 @ X     X o @ @ 2 % ; + = | % @ @ . . ! # + O         . @ _ @ @ @ @ @ @ - + @ @ % d * u.<.= % > - @ @ @ @ @ & = @ @ @ ",
"+.6 @ @ @ 5 + . o .   . @ 3 & = = % ! ! & & @ X ! X   @ @     . @ = k.@ @ @ @ @ @ @ & @ @ @ = 5 9 4.3 @ & : : = @ @ @ @ : % o @ ",
"W :.@ @ @ % 2 ; . .   . + 5 & @ & : 3 %.3 = @ 6 ! X . . 5 . o @ @ 3 S.= @         + = @ @ @ @ z = 2.@ < & @ @ @ * : @ % % . o o ",
"T v.% % % * j w + + + @ @ 5 @ = = = : $.3 3 3 :.t % O . 5 + @ @ @ 9 S.@ + @ + + @ @ @ @ @ @ < z @ ;.5 @ d @ @ @ @ % 3 : .     . ",
"8 <.T @ @ @ & d - @ @ @ 5 > @ = = : : ! c y $.#.t t > > 3 & @ & @ +.3.@ @ @ + @ @ * @ @ @ 5 k 2 . ;.k.< 5 > @ @ @ @ @ * .       ",
"^ 5 +., 2 5 = d = @ @ > 3 = = = > > : &.*.J y.y 3 3 y k * & & & & 4.Y @ @ @ @ @ @ * @ @ 5 < O &   0 6 ;.h > @ @ @ @ @ @ o       ",
"W . +.W . < z d % & 5 d = = = 3 w > : c.T.R.' y u t g y > = & & = C.= @ . . @ @ @ * @ 3 @ @ . @ X ^ X 8 h.= @ @ @ @ @ @ +     5 ",
"O   # 3.#   5 d @ y z = = * = 3 : : Q z.[ f.v.M s u u 3 3 : @ % E C.@       @ @ @ = 3 & @ @ X   , ) @ > ~ x.&.= & @ @ @ % X W +.",
"      8 %.X @ d 3 B l % @ % * - w p z.V p n i.v.A A u 3 * + % = ~ 3..     . & = : y @ @ = @ X   @ ( ) 2 @ 6 :.4.%./ 9 = ! u.) X ",
"O     . %.+.& & % G 5 % % : w w z k.{ n n n N h.H.K s y > % % = | ` o o X . @ @ > > < 2 5 2 . . X Y ,.O + @ @ = = = 8 W 4.S.<.0 ",
":./ X . +.&.2.E > M U c j H B @.h.[ n n n n b ..0.A.C.K s d u = %.) X       @ @ < p = @ @ & @ . . 2 ,.; O > = @ @ @ @ % d c 6 ) ",
"O 0 :.&./ X 5 4.V.v.2.*.$.u.S.!.w.N n n b n b X.7.7.x.L.c 3 d g :.%.o .     O > & k % % % @ X = 2 d %., < = > @ @ @ @ > z z k 2 ",
"5 O < k./ @ @ 3 u ' c D F M q.H.N.L N n b N N ..I S A y.K.:.1.A.A.3.&       X 3 2 = q = @ X . o r j ) X @ @ @ 3 = @ @ u 5 > @ < ",
"@ 5 @ 5 :.3 = 3 s y u s M A m N n.q.C N N n n C m s s s y.^.C.! > > ( #     X < k @ = : - + . o & k | X o % & & 2 % q l @ @ @ @ ",
"@ @ 5 & 2.5 = 3 a y s s A A N b  .b.N .. .n n B s s s y a x.y = @ % @ / 1 . O = l d = * t - + + X Y } O O % & = > p M 3 @ @ @ @ ",
"@ @ & 3 / ) 3 3 s s s M A A D N b s.X.n C L B X.s u u 3 3 3 %.> : % O @ ) / 4 3 3 = 3 = = ; - ; - <.V = % ; : : % @ * & @ @ @ @ ",
"@ & @ d / ~ 3 3 a t s M A D D D  .m.j.N M M P B s y y 3 > = | f w @ @ , + f 2.%.9 = 5 = : ; q : | M.; 2 O % * & @ % * & @ @ @ @ ",
"@ @ = c %.5 > y u u m D D D F F  .Z.B...F M s u y y 3 = O o T T : @ @ & & + & = ) f.x.g.2.&.-.} h f.: % = % = & = @ & & @ @ @ @ ",
"@ & 5 = 2.: > a a s s s s A A A N D./.7.Z x u y 3 : : @ . . T 6 * @ & @ 3 & * = & ~ 3.~ z q q - : h.Y % = @ = & @ @ @ * @ @ @ @ ",
". 5 @ W 3.= > w 3 3 y u s s A J I U.).x.c s 3 3 3 = & o . . 8 + * % @ & 3 * = = > g p.y y y p : : $.s.> % @ & * = & @ = @ .   . ",
"X O . 2.W o % $ * 3 y y u x G s A A.9.[ D.x y 3 * = @ .   1 1 1 ^ } T = 3 @ 3 3 u 3 p.y y A b : : t S.<.% % & = = & @ : @       ",
"# . / N.2 o . o + % 3 3 u g u y c h.c y <.p.h.E 3 % & . @ +.4 8 & Y =.<./ 3 3 g i Z x.Z Z Z Z G H G q.S.%.= = = & @ % : * .     ",
"6 %.N.N.; . . . . o = 3 u l c 3 ( y.y > > y h &.:.&.:.+.4.< X # , 2 l s p.k.K y 3 v h.u s m ..7.G y u ] T.V.~ 3 > = * w : $ o . ",
"2._ -.i.; . . . . o & u l g 3 g =.} = * = : & & = = = * 0 < & @ & & d p u $.=.) } 1.c u s s o.D s s u s $.R.^.L.x.3.$.] ` ) $.<.",
"& . # %.% o o . . . & l 5 = 3 = u.8 = O * * & & & @ @ @ g ~ @ X X O = H u t y v S.h.t u s s J x D s s s u *./.i.c %.=.( W 8 7 + ",
"X O X / X . . X     3 3 = = & & ,.= r T } | %.:.<.:.) E Q %.< + o $ % y y y s u 2.$.s U 6.9.J J M A s s u D ~.u 3 = & @ @       ",
"  @ . ^ . + . X .   5 @ @ & & W y.%.1.=.7 @ % > Y %.<.2.x.g.% > @ % * t H u y s y.0.l A J B B @.A A F D D A ~.v 3 3 = * = +     ",
"  , X ^ .   + . + @ @ @ @ @ = 2.%.# & r & . . @ % = 3 = = %.! * r : > a u c U U #.s.s M i p e n o.A S F s #.).2.3 = * @ & @     ",
"@ , < &.8   . X > & @ @ @ 3 ;.8 .   X , X O . + @ d 3 = = y 3.3 t l s s s a s s x x.A s M p p j A I S F x x.).l.3 = = * & @ @ + ",
", + 5 :.C.4 o @ * @ @ @ & 3.1       o . @   @ 5 k 3 3 = > u g.y u u A M s s s s s q.h.A A s a J #.x.P.D.A./.(.C.3 3 = = & @ @ = ",
"@ @ k C.W.F.+.= & @ & E S.3..       o   X X X = & = = : > v l.y u a I A s s s s M M u.R.A.x.s.y.M.h.r.o.2.S.E.S.3 = = = & @ @ 3 ",
"% = f.W.W.W.I.i.W / 4.T.W.>..       o     @ @ % = = : : : <.$.s M A F F A x Z s i p a L./.y.F D o.x D G q w =.G.$.= = @ = @ = @ ",
"4.d.C.g.:.^ > 3 % = _ 4.S.C.^ .   . o   . = = = = 3 3 u s v.D A s s A c Z Z D M p e p z.#.N D ..D A D l t : ; Q k.Y & = @ @ 5 :.",
"6 & 2 2 @ @ : % @ @ @ @ * 5 / ^ .   o . X > > = > 3 3 s s.Q.-.#.U A O.A A s D Z n p p q.M I L A F D A i j : w d h k.6 @ @ W v.3.",
"@ @ @ , X % q @ @ @ @ @ @ @ X 1 8 . o X $ k = > 3 t y F v.@.V.h.M.G.9.A s A A s p b n i.L i I 5.A A M s p j 2 = @ 9 C.k.v.C.W @ ",
"@ @ + ; X + % = * * * = 3 = u d ,.2 r d d > = 3 3 t a a.-.p a L U y.Z.A A M A M p e b M.b n  .I A A M s t w * : = 3 :.W.J.5 @ @ ",
"& % % :   . @ @ @ @ @ @ + 3 > % ,.L C > = = 3 3 u y a z.j e t P e i u.A A M A A n p L B.S N b A I A A s p t i t 3 = E W.+.* = 3 ",
"@ + O ,     + @ @ @ @ @ 3 = @ = :.c t 3 = 3 3 3 w : V k.w e j C e p [ *.A A M A M B [ Y.S b M A I L M s u y a a J u #.F.3 & & @ ",
"@ + o @ O . + @ @ @ @ = < @ @ = f.l & 3 3 3 3 y w q *.-.e e B j e e n q.A N A A L i n.^. .M A A A I A s s y u a l u E 4.= @ @ @ ",
"@ @ @ . < . @ @ @ @ @ 5 @ @ @ 6 3.5 3 3 i 3 t u w q t.] e e B B e p e t.O.x A U @.N.^.(.B.F A A A A A s s y y 3 u = 5 +.@ @ @ @ ",
"@ @ % + > 5 @ @ @ & @ @ @ @ @ :.W & 3 * i 3 y y p q s.` e e L P B e e q.j.7.x.T.F.s.e.s.Z.H.a.D A x G x y y y 5 < ; E &.@ @ @ @ ",
"5 k 3 @ @ z < @ @ @ 2 @ @ @ 4 k.= = 3 > y a y u y t k.{ e s B e p B p y.).~.C.#.A O.M A F 5.x.P.p.A a J c u 3 : < :.3.s.+ @ @ @ ",
"= @ d & @ 5 z d = 5 @ @ @ < 4.;.@ @ % d 3 s y u s p a.} e B w w e w J A.).u.M A O.A M x Z A U M f.D.-.u x u = %.p.) X ) ^ X @ = ",
"@ @ : 5 @ % z = d = @ 8 +.0 ) :.T 8 ^ ,.f.z.f.=.x a y.-.y V w t e y s ~.x.s s J G s s A A m J w q Q D.u.u 3 %.2.f ,   . 0 ;.4 = ",
"& = - @ 2 2 t.3.<.2.z.N.W . . X 0 T 6 2 d *.g.D.U.D.Q.S.G P w t p p ' K.J J B t y s a M Z a C q w y A m.F.S.&.o & ,       9 v.! ",
"S.f.:.+.p.k.x.~ % + T :..   . 5 < ; X O y t y y s $.C.Q.8.P U l u y f.d.y : : : : y s Z u c > > t y i v T.D.& . O @   . @ @ 4.T.",
"E.Z.2.~ & z z 2 @ X 7 7   . < .   X 2 & j t 3 3 3 y M M.z.y y c u u g.=.t ; ; ; - : s a c c l 3 3 : 3 3 C.4.@     @ X @ @ 5 T E.",
"W & % @ @ 5 v < @ + 7 @ . <     . . + k B B y y y y F F S.M t l t t 3.| > * % % % - i l 3 3 u 3 = = : 3 4.>.@ + + > @ @ @ & = l.",
"@ % & @ @ @ V = @ @ 9 O 2 .         . r B z = > 3 l y y h.$.3 G 3 > ;.;.= + o + + - = g = 3 = 3 = & = = >.;.= & @ 5 @ & = @ 4 = ",
"& : - @ @ @ d 5 @ @ +.2 &         . @ * y H g 3 3 3 * t +.l.3 3 d 3 ) <.= o o o % o @ g & & @ = 3 & @ @ %.3.& @ @ d > k @ 4 W @ ",
"@ : : = @ @ = g @ @ >.k 5 X X X + @ * % @ 3 g g = * * t 3 C.3 = 3 = ! u.: % $ % + . + u = & & & = & X O > k.& @ @ & k z < 3.= @ ",
"* @ @ @ = = @ 3 k 5 l.K z = @ @ @ : @ * & & & & @ = 3 % = l.3 & % 5 3 l.* + % % + + @ = g @ @ +   @     X c.! @ @ @ > c g.W @ & ",
"& X . @ @ @ % & = d C.5 5 5 @ @ : : 3 : * & : : * 3 3 @ = l.3 @ @ @ 5 C.5 + % - @ @ @ @ d @ X .     + . +.N.v.) @ = 8 l.p.3 * * ",
"5 = @   + @ @ & - > l.> - d = * : % @ @ @ @ @ @ & @ : @ & S.5 @ @ @ d A.%.& @ : & @ @ @ 5 +           +.h.1 # R ! <.H.p.: l & = ",
"    , .   @ @ @ * - 3.= = & @ @ * @ @ @ @ @ @ @ @ @ @ @ 6 J.= @ = 5 v Y.C.& @ * = @ @ & 5 X         1 c.T .   o . . %.T @ k = = ",
"    # X   @ @ @ @ : ;.@ > + + @ * @ @ @ @ + .   . . . . &.Y.3.] k h 3.W.W.l.3 @ : & @ 5 = +       . 2.:.O .   . .   + 4.3 k 5 X ",
"    O .   + & @ @ = >.& O     . @ @ @ @ @ + .     . . < k.:.+.;.>.k.l.x.T.l.2._ 5 @ 5 = @ +       0 4.O O     . .   X 9 $.k @ X "
};
