/* XPM */
static char *player[] = {
/* columns rows colors chars-per-pixel */
"64 64 237 2 ",
"   c #06487F",
".  c #2D4F7B",
"X  c #405273",
"o  c #737079",
"O  c #AB765B",
"+  c #8F7A6F",
"@  c #AF7E66",
"#  c #A68F4C",
"$  c #A99355",
"%  c #998467",
"&  c #9A8566",
"*  c #9A8A78",
"=  c #BB8A6B",
"-  c #AA8775",
";  c #AE9474",
":  c #B89879",
">  c #C79875",
",  c #CFA37D",
"<  c #064B83",
"1  c #094C85",
"2  c #064D8A",
"3  c #0A4F89",
"4  c #0D4D89",
"5  c #07518C",
"6  c #08548D",
"7  c #15568F",
"8  c #075593",
"9  c #095691",
"0  c #075896",
"q  c #0A5994",
"w  c #065699",
"e  c #085699",
"r  c #07599B",
"t  c #0B5D9A",
"y  c #105694",
"u  c #125A96",
"i  c #1C5D94",
"p  c #125D9B",
"a  c #285689",
"s  c #0A619E",
"d  c #13619D",
"f  c #1C649C",
"g  c #23679C",
"h  c #2A6B9F",
"j  c #386397",
"k  c #065DA2",
"l  c #095EA4",
"z  c #085FA8",
"x  c #135EA1",
"c  c #0A64A4",
"v  c #0865A8",
"b  c #0A64AA",
"n  c #0A6BAC",
"m  c #1364A3",
"M  c #1767A6",
"N  c #146AAB",
"B  c #196CAC",
"V  c #0B70AE",
"C  c #1771AE",
"Z  c #0B6EB2",
"A  c #086BB4",
"S  c #136DB2",
"D  c #1A6FB0",
"F  c #0B72B4",
"G  c #0974B9",
"H  c #0A75BA",
"J  c #1473B3",
"K  c #1976B7",
"L  c #147BBB",
"P  c #246CA3",
"I  c #2B6EA2",
"U  c #226FAB",
"Y  c #336DA6",
"T  c #2D72A5",
"R  c #2774AC",
"E  c #2C74AB",
"W  c #3174A6",
"Q  c #3A73A7",
"!  c #3276AA",
"~  c #347AAC",
"^  c #397DAD",
"/  c #2978B4",
"(  c #337DB3",
")  c #3978B3",
"_  c #4E5D8A",
"`  c #764E9B",
"'  c #566484",
"]  c #4C6790",
"[  c #4A6897",
"{  c #566B93",
"}  c #5B749C",
"|  c #71728F",
" . c #67759B",
".. c #7854A3",
"X. c #4978AF",
"o. c #597AA8",
"O. c #5379B5",
"+. c #6E76A5",
"@. c #667CA6",
"#. c #097BC0",
"$. c #6277C3",
"%. c #957299",
"&. c #8859AD",
"*. c #8D6CB1",
"=. c #9762BC",
"-. c #9B69C5",
";. c #9271C9",
":. c #A46AC9",
">. c #A86CCD",
",. c #AD71D2",
"<. c #1A82BD",
"1. c #3B80AF",
"2. c #2B82BB",
"3. c #3C83B3",
"4. c #3783B8",
"5. c #3D8ABC",
"6. c #7E8596",
"7. c #4186B3",
"8. c #448AB6",
"9. c #448CBB",
"0. c #498DBA",
"q. c #5983B0",
"w. c #4791BC",
"e. c #4C93BD",
"r. c #5897BD",
"t. c #6B8AAF",
"y. c #7686A8",
"u. c #6989B6",
"i. c #788AB7",
"p. c #7793B9",
"a. c #1B88C3",
"s. c #308EC4",
"d. c #398BC2",
"f. c #468FC1",
"g. c #4593C3",
"h. c #4B95C2",
"j. c #4C9AC5",
"k. c #539BC3",
"l. c #549BC4",
"z. c #6F96C5",
"x. c #4CA1CC",
"c. c #59A1C6",
"v. c #54A3CA",
"b. c #57A7CA",
"n. c #5CA4CB",
"m. c #4FA6D2",
"M. c #5AABD2",
"N. c #5CB2D3",
"B. c #67A5CB",
"V. c #62ABCD",
"C. c #7AA5CB",
"Z. c #64ADD2",
"A. c #68AED2",
"S. c #65B2D2",
"D. c #6DB3D3",
"F. c #6BB8D7",
"G. c #74BAD7",
"H. c #6EC3DB",
"J. c #78C4DD",
"K. c #7BC9E0",
"L. c #958B90",
"P. c #AB948E",
"I. c #B89787",
"U. c #B9A687",
"Y. c #BCA398",
"T. c #8C8EAB",
"R. c #8996B8",
"E. c #979CB5",
"W. c #AE91B8",
"Q. c #97A2B3",
"!. c #98A3B8",
"~. c #B9ABAD",
"^. c #A8A9BB",
"/. c #C3958C",
"(. c #C8A888",
"). c #D6AB85",
"_. c #DDB48A",
"`. c #CBAA96",
"'. c #D6A99C",
"]. c #D8B695",
"[. c #E2B68B",
"{. c #E4B98E",
"}. c #E1B790",
"|. c #E5BC92",
" X c #E9BE91",
".X c #C794BB",
"XX c #CBB9B0",
"oX c #EBC093",
"OX c #E7C099",
"+X c #D9C3B7",
"@X c #E7C8A5",
"#X c #E6CBB5",
"$X c #8B97C6",
"%X c #AD94CB",
"&X c #8FAECF",
"*X c #98A4C7",
"=X c #A7ABC3",
"-X c #A8ABCE",
";X c #ADB2C6",
":X c #B7B9CA",
">X c #A9B5DA",
",X c #B6BBD7",
"<X c #B6BCE2",
"1X c #C3BDC6",
"2X c #C2B8D3",
"3X c #82C5DE",
"4X c #9AC1DA",
"5X c #BEC1CD",
"6X c #BEC4D6",
"7X c #89CCE2",
"8X c #93D3E5",
"9X c #B7D4E7",
"0X c #C8C6CD",
"qX c #D6CCC9",
"wX c #C7C8D6",
"eX c #CED1DD",
"rX c #D4D4DD",
"tX c #DAD8DA",
"yX c #E6D8CE",
"uX c #C9C8E9",
"iX c #CCD5E8",
"pX c #DCDCE3",
"aX c #D8D8E9",
"sX c #D1CDF0",
"dX c #DAD7F1",
"fX c #E1DFF0",
"gX c #DEE2EA",
"hX c #E3E3E6",
"jX c #E4E5EB",
"kX c #EAE9E8",
"lX c #ECECED",
"zX c #F2EEEA",
"xX c #E6E4F3",
"cX c #E8E6F5",
"vX c #EDEDF4",
"bX c #F1EFF6",
"nX c #F3F2F5",
/* pixels */
"<   u < 1 6 6 6 6 f v.q 1 7 7 2 1 6 6 6 6 3       < 5 9.g <   6 1 1 6 P l.6 6 q ) 3.U 9 6 6     f ^ 4 < 1     < 2   1 M 4.p 6 3 ",
"1 < x 6 6 6 6 6 6 ^ N.9.m p x x 6 6 6 6 6 1       5 ( h <       6 1 6 c.r.j 6 6 4 x ~ e.e.0.8.7.e.3   3   1 y u x p M N 0 ~ 9 6 ",
"6 9 B M q 6 6 9 f ( M E ) P 4 2 u 9 6 6 6 1     < T E < < 1 <     q ^ 4X5XR.6 4 q 9 6 9 g 0.V.H.c.6 u   3 6   < 2 8 6 6 6 P ~ 6 ",
"q 6 M 6 m m d 7.w.p < 3 x P I 1 3 d 6 6 6 6 < < g j.1.w.7.! q.^ h 7.9XjXj } 3 1 p 8 8 6 6 9 0 H.n.B B d q 1 1 5 0 8 6 6 6 6 ! 7.",
"V.0.g.7.7.h.l.^ 9 2 < 2 3 2 3 I 7.f m s f 1.W T M.x.T 7 < < y.} d ^ iXbX5X!.5 t t p p k 6 6 9 k.n.t t 6 6 6 5 9 0 q r 5 6 6 6 k.",
"e.W T ( T i 6 5 6 6 2 8 8 5 < 4 1.n.E 3.4.f 6 d / ^ <      .E.  ] 6XxXnXbXnX>XR.< 5 9 m N 9 6 E Z.q 6 6 6 6 5 0 5 5 r 9 6 6 6 7.",
"7.6 6 q t 6 1 < 1 5 r 6 5 y 2 2 9 1.f 5 p d 9   q.p.1 !.0XpXy.  } zXnXnXnXvX;X[ y.8 6 6 q N t q V.U 6 5 6 9 r q 5 9 5 r 6 6 6 d ",
"7.9 6 6 p 6 1     1 2 6 6 p 8 e 6 q 3.q 9 6 < < q.[ eXnXnXbXpX] 0XnXnXnXeX9 =X;X6 r 5 6 5 6 m r e.9.t q r 0 5 5 6 6 6 q 8 6 6 6 ",
"^ f 6 6 6 d 3 1 2 <   < 6 s q q r q T E 9 9 1 1 u.2 wXvXnXnXpX^.jXnXnXnXxXwXbXwX-XX.6 j 2 6 q d f r.d 6 9 r r 0 9 6 9 6 r 8 5 6 ",
"I 8.6 6 6 9 t q < <   < 6 d q 6 9 r s 3.q q 6 X.R 6 =XnXnXvXnXnXnXnXnXnXnXnXnXnXnX!.6 ;X[ 6 6 B q 8.6 d 9 6 6 9 r r 5 9 5 < 2 5 ",
"I M.9 8 0 r b l 5 5 5 6 9 d 6 9 q q k ( s 0 R.&Xv @.iXnXvXcXnXnXxXvXdXdXcXnXnXnXeX:XjXvX5X6 u B 9 3.d 5 s 6 6 6 6 9 r r <   < < ",
"g 9.I 6 6 6 9 m w 5 6 5 d q 9 q r 8 t E J 6XgX2.q.eXvXnXdXcXvXgXdXdXbXuXaXsXbXnXeXpXnXaX@.p N p 5 3.c.u s d 6 6 6 6 6 0 <       ",
"! u 3.y p d t m 0 6 6 s s 9 q q t t t 3.B.nXiXuX,XaXnXnXaXaXtXnXnXnXlX6XcXsXdXbXdXvXbXaX$Xu 1 y < h f 8.m d 6 6 6 6 9 5 2     < ",
"W < 1.I < u B d 5 q d d q q q s t k k b.G.iXnXvXlXnXnXdX4XnXwXnXlXnXzXzXnX6XuXuXsXnXbXbXE.6 < 6   W 1 g l.q 6 6 6 6 6 6 2     d ",
"3   7 e.7   d m 9 c B r q 0 r s t r E G.cXnXnXnXxXcXdX>Xt.lXnXnXlXnXhXnX5Xy 1 6 R.uXcXbX:XeX2   6 ^ 6 p ~ n.7.s 9 6 5 9 9 < T ^ ",
"      g 3.1 6 m s S C 5 5 8 0 0 k z v.iXnXnXnXsXsX<XO.Y hXzXnXnXnXkXnXnX5X:X6 q e z.,XbXnXnXR.< y ! ~ q 6 f 8.e.3.W g q ~ h.~ < ",
"3       3.3.q 6 q J s q 9 r l t B l./ fXcXfXsXsXG.L n X.rXkXzXlX0X+XlXnXnX5X3 6 t t -XbXbXbX<X_ 1 B 9.1 3 6 6 6 s 9 f T e.S.8.I ",
"8.~ 3   1.3.w.E s n K C N K J a.v./ A &XsXsXbXbX>XZ.V.K q.0XkXtX].{.qXlXrX6.5 6 p b y.bXbXbXxX .  p 9.9 2 d s 3 6 6 6 9 M C f ~ ",
"1 I 8.5.1.  d e.n.n.g.4.( h.S.K.s.S A <XsXcXbXbXC.a.n.G.t.^.yX+X#X+X+X~.Q.  6 s 9 m o.jXcXcX,Xp p M ^ p u q q q 6 6 6 r B D B d ",
"d 3 y k.E 6 9 s n / C F G Z d.F.S.H $XbXbXbXcX>XL G G 9.F.Q., #X].#X@X: *     d m @.,XnXbXaX{ 3 x M ~ < 3 9 9 0 6 6 9 n d q 6 q ",
"6 d 9 d w.q s s b c n n F A A A M.s.>XbXnXnXnX&X7.O.A V !.$ # (.yXyX> # $ o 2 s p.vXnXnXnXbXiX1 6 B ^ 3 1 9 q 9 t q r N 6 6 6 6 ",
"6 6 d 6 8.f q s n c n Z F F G A #.m.) fXnXnXbXcXcXgXb b U.# P.I.; : (.U.# * < q uXnXnXnXbXnX!.6 2 P ( 2 1 8 5 q t b S s 6 6 6 6 ",
"6 6 q s W 1.s s A c Z F F G H H A m.L $.uXdX<X&XgXjXn W tXlXyX X@XoXoXyXnXtXd s i.bXnXxX*X@.w w w 9.B t 8 r r r q 9 0 9 6 6 6 6 ",
"6 6 6 s E W s s n c b A S G H G H M.x.A A A L S 6XhXq.R.hXlXkX}.|.oX#XnXlXtXC.-XnXbXxX<Xt e k t ) M.e p 2 8 0 q 9 6 q 9 6 6 6 6 ",
"6 6 q C 3.d s v c v F G G G G G #.Z.Z.#.G V n } u.iXvX=XtXnXkX#XoX{.zXnXzXkXy.aXfX<X>XC.w.3.4.( B k.w 8 0 9 q q 9 5 9 9 6 6 6 6 ",
"6 q d s w.t t b v V v V n V F F H D.8Xa.A t._., L.i.dXwXrXnXyX'.`.`.XXbXhXhXrXsXy.T.L.T.C s l w t j.P 9 q 6 q 6 9 9 9 0 6 6 2 6 ",
"  d 6 I 0.0 k l s s c n n V V <.L J.8Xn.C Y.oX}.+ i.dXlXzXbXXX/././.> kXkXpXjXR.s - , _.6.v b w r 4.k.s q 5 q q q 9 5 r 6 <     ",
"1 6   w.T 2 8 5 8 s c c c V F V S D.a./ D.Y.oX[.: q =XjXnXzXqX'.`.`.'.zXnXrXcX$Xs - oXoXP.G A k r r S.d.9 6 8 q 9 5 9 r 6       ",
"y   T N.q 1 < 2 5 9 s s c N c s S x.J c 8.l.(._.@ }.XXhXnXnXqX X_. X_.kX0XpXfX~.P.= oX_.O.F F F J J d.F.3.8 r r 0 9 6 k r <     ",
"f 3.N.N.r < < < < 5 q s N N C s ) g.c t t c X.T.~.'.XXlX0XqXyX X). X X'.P.:XqXXX|., ]. .n G H a.J c c / J.B.~ s 0 9 q k r 5 2 < ",
"w.1.5.x.0 < < < < 2 8 c N d s M 4.( q w t r q 9 a =X0XtX:X). X X XoX[.'.%.E.:X~.5Xr.C c n n <.F n n n c 2.J.7XG.n.e.4./ E E 4.w.",
"y   7 3.q 2 2 < < < q N s q s s h.P 9 1 6 q 9 9 a { T.=X%X:.W..X.X.X.X=.=.` =X;X&X<X<X-XN n L F F V n n c 4.7Xj.C 3.3.~ T g g 5 ",
"< 6 1 W 3 1 < <     s s 9 9 8 q 8.t d I ( ( &XuXuX$X>XuX%X=.:.:.&.&.&.` &.:.*.-X>X>XsX<Xd.L K L A A A N v G J.N s q q 6 6 <     ",
"  7   W   6   3     d 6 9 9 9 T g.3.0.4.g 5 uXR.*XsXiXkXhX0XE.*.*.W.%XW.^.,.>.&.O.e.,X%X;.>.,.>.;.O.G G G F 3XC s s q q 9 5     ",
"  y 6 W <   6   6 9 6 6 9 6 q e.3.4 9 b 9 a uXR.7 :XnXtXhXzXvXhXeX:X0X:XpX%X,.>.:.:.:.=.=.=.:.>.>.` G H n 4.7Xw.s s 9 q 6 6 <   ",
"6 y u 3.g     1 s 6 6 6 6 s 1.g < < < *X*.R.y.} pXnXnXnXnXvXkX1X:X:XwXkXhXpX%X,.>.-.=.:.:.:.=.....X.z.H F n.8Xc.s 9 9 9 6 6 6 2 ",
"y 6 d 8.N.f 6 6 q 6 6 6 u e.f     y.R.{ 1   p.zXnXnXnXnXnXnXhXeXwXwXtXlXnXnXnXtX0X:X$X$.-.&.-.=.` O.G.D.Z.7X7XS.s s q q q q 6 q ",
"6 6 m V.J.F.1.9 q 6 9 h V.e.    +.] 2 < 5 Q.zXnXnXnXnXnXnXhX0X:X=X;X2XrXpXnXnXnXnXnXcX&XZ.;.&.+.z.h.s.L g.S.K.F.s q q q 6 6 6 s ",
"9 r k.J.J.J.G.j.T W e.H.J.0.<       2 < 6.lXnXzXnXnXnXkX2XeX;Xi.N X.:XeXwXnXnXnXnXnXvXgX7Xg.-.{ L F G J l l 4.S.2.6 q 6 9 6 9 9 ",
"e.r.Z.c.8.W s s 9 s ~ r.S.S.W <     2 T.kXnXnXnXnXnXkX:XpX:X) Z n A / :XhXtXnXnXnXnXnXnXuXG G L F A H A c t y R b.P q q 6 6 d 8.",
"f 9 p p 6 6 w 9 6 6 6 6 9 d W W <   2 E.:XaXhXnXnXnXjXjX;X3Xd.2.K F a.) :XnXnXnXnXzXnXhXzX,Xz.F G G G b N t l m f j.d 9 q W V.w.",
"6 6 6 8 3 q k 5 6 6 6 6 6 6 < f h < 2 E.I.@ - 1XnXnXnX0XB.2.Z.k.M.F.a.n u.aXnXnXnXkXnXhXpX:Xu.a.G Z A n z N t q 6 P V.k.b.V.W 6 ",
"9 5 5 q 1 5 9 q r q q q s s s m 9.u x T. X}.> @ XXjXpX$X5.n v Z L h.A.F Z E.kXnXlXvXtXY.L.^.p.L F F Z n z l r r q q w.K.F.d 6 6 ",
"8 9 8 t < 1 5 5 6 6 6 6 2 s q q 4.K S Y. X X X@ Q.5X;Xb.m z b K l b j.F F ) :XnXrX1X@ > |.~./ F L F Z n c c v s c q T K.1.9 s s ",
"6 6 2 y   < 5 5 6 6 6 6 d q 6 9 9.C N ]. XoX XI.;X;XR.k.z z b K b z / d.A A !.,X^.- > oXoX].F F L F n n n s n n J V 2.F.s q 6 6 ",
"6 6 2 6 5   5 6 6 6 6 q q 6 6 q r.M { oXoXoX).@.+.u.0.8.z z S b z z A d.F F p.;X=X~.O  XoXoXy.F F L F n n c v n V s P k.6 6 6 6 ",
"6 6 5 1 u < 6 6 6 6 5 d 6 6 6 f e.s L.OXoXoX%.s l k f.) l z S S z b z f.<.F / p.*X&XQ., oXoXY.G F F J n n c c s d s d 3.6 6 6 6 ",
"5 6 q 6 q d 6 6 6 5 q 9 6 6 6 8.E q L.oXoX, j b b z j./ z z K K S z z d.x.a.v.G.D.j.e.= oXoX].G F F J F c c c d q q E 3.6 6 6 6 ",
"d M t 6 5 B t 6 6 6 q 9 6 6 f c.q q P.oXoX; c v n c v./ l b S z b S b g.8X7XZ.2.Z a.A + oXoXoXG.h.F n K J V d q u 8.e.j.6 1 q 6 ",
"q 6 m t 6 d B d q M 9 1 6 u e.7.6 6 Y. X X| c c v c g.( z S l l z l K A.8Xg.n Z L S Z  .[.oXoXo.j.D.5.c V s q 1.j.~ 1 ~ W 5 6 q ",
"6 6 r t 6 q B t m r 6 g 1.I ~ 8.I g Y.oX[.p.l.0.F n g.d.b K l c k b n J.n.n n L J n V Q , oXoX+.k R D.j.n s 1.e.M u < < h 1.d 7 ",
"9 9 t 6 p t 0.e.9.w.n.N.W     1 h ! Y.oX_.@.l.D.G.Z.7XS.S K k c c n 2.D.K J N b v n n V ).oXoX+.k c / !.G.S.3.6 7 6     < h b.~ ",
"S.k.5.1.k.k.n.~ 9 3 T 5.' . 1 u u 9 I.oX, s s v n 4.Z.K.s.K L N b b c.r.c r t w r c v F I.oXoX .c { `.(.U.&X6     6     6 6 e.H.",
"J.V.w.~ 0 B B d 6 < g | (.(.I.X < 2 P.OX).v s s c s n M.k.c c J c c v.3.c w 8 e w t v n U.oXoXj o ].].U.U.U.]     6 2 6 6 d W J.",
"T 0 q 5 6 d B q 6 6 } , U.U.(.& ; ].].oX).n c s c c L G S.A c N c t e.3.r 8 8 8 8 0 v Z I.oX{.P.* `.& & % & ] 6 6 d 6 6 6 6 t c.",
"5 0 9 5 6 6 B q 6 6 P.: & % % U.; oXoXoX_. .q q t Z c c l.4.c N s r 3.9.q 8 2 2 2 w t N ).oXOXOX: % & & % & . d 6 d 6 6 d 6 d 9 ",
"6 r r 6 6 6 m d 6 6 * & & & & & ; U.].|.|.; N s s s 8 v 1.b.s d c s ( 0.6 2 2 2 8 2 5 [ , oX].U.% % % % & % a 6 6 m q M q d W 3 ",
"6 r r r 6 6 q N 6 6 6.& & & & & & & & * U.U. .c 9 9 r s s S.s 6 s q T h.r r 5 8 2 1 5 | , ].; & % % % % & y.q 6 6 9 B B u e.q 6 ",
"0 6 5 9 q 6 6 s N s r.& & & & & & & & & & & 6.6 9 9 s 0 6 b.s 9 6 s s c.9 2 8 w 5 5 q + U.% % & % & % % ' N.R 6 6 6 q C c.T 6 6 ",
"9 3 1 1 6 9 8 9 s d V.j o & & & & & & & & & + 9 r s s 6 9 c.s 6 6 q d V.d 8 8 w 5 6 6 * % % & & & % o . ^ N.M.! 6 q f n.h.d q q ",
"d q 6   3 6 6 q w t b.r s s ] o o & & & & & o 6 6 9 r 6 9 S.d 6 6 9 M S.3.6 9 r q 6 6 o & & & $ o .   ^ k.i q T E 9.D.k.r N 9 q ",
"    y   < 6 6 6 0 t e.9 6 7 5 5 r a ' o o a 5 6 6 6 9 2 d H.9 6 q d C J.n.q 5 0 0 6 6 _ & & & o . < 7 n.I <   3 < < 3.P 9 N t q ",
"    6 1   6 9 5 5 0 7.6 0 6 6 6 r 6 6 6 6 6 < < < < < < 1.H.e./ M B e.J.J.c.d 9 r 9 6 s 6           w.8.6 <   < < < 6 e.s m i 1 ",
"    4 1   6 6 6 5 q 8.q 6     < 5 6 6 6 6 6           d n.w.1.3.9.r.c.n.H.n.8.^ s 9 d q 6 6       h k.  1     < <   < P 4.N 5 1 "
};
