/* XPM */
static char *collect[] = {
/* columns rows colors chars-per-pixel */
"64 64 225 2 ",
"   c #7B0022",
".  c #06467A",
"X  c #06487F",
"o  c #7A635D",
"O  c #5A5977",
"+  c #665A66",
"@  c #7B6A74",
"#  c #870026",
"$  c #890027",
"%  c #98002B",
"&  c #821B23",
"*  c #A90031",
"=  c #B70034",
"-  c #852425",
";  c #C50037",
":  c #CC0039",
">  c #D5003C",
",  c #D80039",
"<  c #C22534",
"1  c #C53B36",
"2  c #9F531F",
"3  c #B67519",
"4  c #924C27",
"5  c #B25525",
"6  c #AB6A2C",
"7  c #A87639",
"8  c #C37E1B",
"9  c #CA5233",
"0  c #C46228",
"q  c #CB7324",
"w  c #90754E",
"e  c #9A745B",
"r  c #B17B55",
"t  c #95786F",
"y  c #A57866",
"u  c #AA7F71",
"i  c #CE6F44",
"p  c #AB863C",
"a  c #B28C3E",
"s  c #C6811C",
"d  c #CE841D",
"f  c #D1871C",
"g  c #D4891D",
"h  c #DB8E1E",
"j  c #DF901E",
"k  c #E5941F",
"l  c #CC8628",
"z  c #D78C23",
"x  c #DD9123",
"c  c #D68E37",
"v  c #E39423",
"b  c #EB9922",
"n  c #EA9925",
"m  c #F29E25",
"M  c #F19F28",
"N  c #E99A31",
"B  c #F6A127",
"V  c #F5A229",
"C  c #FAA52A",
"Z  c #FFA82B",
"A  c #A9864B",
"S  c #BB9342",
"D  c #B99148",
"F  c #B48758",
"G  c #9D8C7D",
"H  c #B68E69",
"J  c #A98476",
"K  c #D7894B",
"L  c #C39946",
"P  c #C49A46",
"I  c #CA9E48",
"U  c #D6954A",
"Y  c #C98A55",
"T  c #D69455",
"R  c #CDA14A",
"E  c #D1A44B",
"W  c #D5A84C",
"Q  c #D4A955",
"!  c #DBAE54",
"~  c #DFB157",
"^  c #E4AC57",
"/  c #E4AC5B",
"(  c #E4B559",
")  c #E5B658",
"_  c #ECBC5D",
"`  c #F0BF5E",
"'  c #C68F65",
"]  c #CCA669",
"[  c #F1C05F",
"{  c #F5C361",
"}  c #F9C662",
"|  c #FFCB65",
" . c #064B83",
".. c #094C85",
"X. c #064E8A",
"o. c #0A4F89",
"O. c #07518C",
"+. c #08548D",
"@. c #15558E",
"#. c #054F92",
"$. c #075593",
"%. c #095691",
"&. c #075896",
"*. c #0A5994",
"=. c #065699",
"-. c #0A5699",
";. c #07599B",
":. c #0B5D9B",
">. c #105694",
",. c #125A96",
"<. c #1B5D94",
"1. c #125D9B",
"2. c #2E5586",
"3. c #38588A",
"4. c #0B619E",
"5. c #12619D",
"6. c #1C639C",
"7. c #226297",
"8. c #23679C",
"9. c #23699E",
"0. c #296B9F",
"q. c #3E6595",
"w. c #065DA2",
"e. c #085EA4",
"r. c #085FA8",
"t. c #135EA1",
"y. c #0964A5",
"u. c #0A64A4",
"i. c #0A64AA",
"p. c #0A6BAC",
"a. c #1364A3",
"s. c #1966A5",
"d. c #1369A6",
"f. c #156AAB",
"g. c #196CAC",
"h. c #0B70AE",
"j. c #1671AE",
"k. c #0866B3",
"l. c #076EB3",
"z. c #0A6CB3",
"x. c #0A6DBA",
"c. c #136DB2",
"v. c #196FB2",
"b. c #0B72B4",
"n. c #0B74BA",
"m. c #0A76BB",
"M. c #1573B3",
"N. c #1B73B4",
"B. c #157BBB",
"V. c #1878B8",
"C. c #246CA3",
"Z. c #2B6EA2",
"A. c #226FAB",
"S. c #3868A4",
"D. c #2E72A5",
"F. c #2774AD",
"G. c #2D74AB",
"H. c #3174A6",
"J. c #3378A7",
"K. c #3276A9",
"L. c #347AAC",
"P. c #397DAD",
"I. c #287AB5",
"U. c #2B7AB4",
"Y. c #347DB3",
"T. c #387FB0",
"R. c #405D8F",
"E. c #546B91",
"W. c #6F6F8D",
"Q. c #647799",
"!. c #117CC0",
"~. c #937C87",
"^. c #1983BE",
"/. c #3B80AF",
"(. c #2983BD",
"). c #3C83B2",
"_. c #3883B6",
"`. c #3583BA",
"'. c #3D8ABC",
"]. c #4186B3",
"[. c #448BB6",
"{. c #498DB7",
"}. c #448DBB",
"|. c #498EBA",
" X c #508EB3",
".X c #4791BC",
"XX c #4C93BD",
"oX c #6E93A6",
"OX c #1D8BC4",
"+X c #368EC4",
"@X c #388CC2",
"#X c #458FC2",
"$X c #4493C3",
"%X c #4C96C2",
"&X c #4B9BC7",
"*X c #539BC4",
"=X c #549BC5",
"-X c #4EA1CB",
";X c #59A1C6",
":X c #55A4CB",
">X c #57A7CA",
",X c #5BA5CC",
"<X c #4FA6D2",
"1X c #5AABD2",
"2X c #5CB2D2",
"3X c #61A6CA",
"4X c #62ACCE",
"5X c #7BB4C8",
"6X c #64ADD2",
"7X c #68AFD2",
"8X c #65B1D3",
"9X c #6DB4D4",
"0X c #6CBAD7",
"qX c #73BBD7",
"wX c #6EC3DB",
"eX c #79C4DC",
"rX c #7AC9E1",
"tX c #908C8E",
"yX c #A79888",
"uX c #B3A896",
"iX c #93A4AD",
"pX c #C7AF82",
"aX c #82C5DE",
"sX c #85CBE2",
"dX c #93D1E5",
/* pixels */
" .X ,. .o.O.+.+.+.6.&X1...@.o.o.o.O.+.+.+.o.X X X  .X.}.0. . .o... .+.C.;X*.+.*.K.).F.+.%.+. .X 6./.o.X ..X X  ... ...a.`.,.+.O.",
".. .t.+.+.+.+.+.+.P.2X}.a.1.t.t.O.+.+.+.+.o.X X X O.L.Z. .. .  .o...+.=X].+.+.+.o.t.L.XXXX|.[.].XX..X O.X  .>.,.t.t.s.d.-.P.+.O.",
"+.%.s.s.*.+.+.%.6._.d.K.].t.>.X.,.+.+.+.+.O.X X  .D.G...o. .X X  .>.].4X*.+.+...>.-.+.%.9.{.4XwX=X+.,.X o.+. .X X.=.+.+.+.C.P.+.",
"%.%.d.%.a.a.5.]..X,. ...t.0.Z.X.O.5.%.+.+.+.X  .8.&X/..X[.J.H.P.Z.).0X{.%.+.+...1.-.%.+.+.+.:.0X,Xg.g.5.%.....O.=.$.+.+.+.+.L.).",
"4X|.#X[.].XX=XP.%.O. .X.@.X.o.Z.].8.a.:.6.P.H.D.1X-XD.<.X  . .O.6.D.4X).+.+.+.,.1.t.:.e.+.+.+.*X,X1.*.+.+.+.+.+.*.$.;.+.+.+.+.=X",
"XXD.H.Y.H.1.+.O.O.O.X.$.#.#. . .).,XD.)._.9.+.5.I.L.X X X X X X . ..D.F.d.4.s.*. .O.+.a.f.+.+.D.6X%.+.+.+.+.+.;.+.+.;.$.+.+.+.].",
"].%.+.*.*.+.o. ...O.;.+.X.,.X...*.P.C.+.:.a.O. .6./.X X X X X X X +.9.%.+.1.*.+.+.&.+.+.:.f.;.*.6XA.+.+.+.*.;.+.+.+.+.;.+.+.+.5.",
"].%.+.+.1.+.o.. X ..X.O.%.1.$.-.+.+.Y.%.+.O. . .K.,.O.O.X X X X  .+.P.%.+.+.+.+.+.;.+.+.+.+.a.:.XX}.:.&.;.;.O.+.+.+.+.*.*.+.+.+.",
"/.6.+.+.+.1.O. .X. .X  .+.5.*.%.;.*.D.D.*.+...X.D. . .O.+.X X X o.*.;X+.O.+.+.+.+.+.*.+.+.+.*.5.6.*X5.%.$.;.:.;.+.+.+.+.;.$.O.+.",
"D.[.+.+.+.%.1.-. . .X  .O.5.%.+.+.;.u.).&.&.*.6.D.o. . .4.X O.+.+.4.8X*.O. .X X X +.%.+.+.+.+.g.+.{.+.4.+.+.+.+.;.=.+.*.+. .X.X.",
"C.1X-.+.%.;.i.e.O.O.O.+.+.a.%.%.+.*.;._.4.4.4.[.i.$.O...5.+.+.+.+.9.8X+.O.O.O.X.O.%.+.+.+.+.*.g.*.].,.+.a.+.+.+.+.$.;.;. .X X  .",
"8..XZ.+.+.+.%.d.;.O.+.+.4.%.*.*.*.:.4.F.M.y.`.`.u.w.4.*.5.+.%.+.+./..X+.+.+.+.+.+.%.*.+.+.a.s.,. .].;X5.5.*.+.+.+.+.+.=. .X X  .",
"H.1./.>.1.5.*.s.&.+.+.4.5.+.*.&.:.;.4.).`.M..Xy.u.4.u.a.*.$.%.%.+.*X9.+.+.+.+.+.+.&.+.+.5.4.+.>.X 0.5.].s.*.+.+.+.+.+.+. . .X X ",
"D. .).Z. .>.g.5.+.*.*.a.*.*.4.4.e.:.;.>XeXeX(.y.u.u.u.u.4.&.%.%.*.4X4... . .+.+.+.&.+.5.+.+. .o.o.H.o.8.:X*.+.+.+.+.+.+.X. .X 1.",
"o.X @.XX@. .5.a.%.u.g.&.*.*.&.4.;.w.F.:XN.*X1Xh.p.j.u.4.4.;.*.+.C.8X+.X X  .+.+.+.;.4.+.+.+.o.X +.P.o.,.F.,X).*.+.+.+.+.$...D./.",
"X X X 8.). .+.d.5.c.f.$.O.$.&.&.;.i.:XN.i.k.$X1Xb.h.y.d.&.O.$.&.P..X . .X  .+.$.;.4.+.+.+.+.O.. >.K.J.5.+.6.{.*X).J.8.:.G.%XL...",
"o.X X X )./.%.%.%.M.4.*.-.;.e.w.g.:XI.k.k.k.x.*X0XV.p.4.4.+.+.*.`.I.+.%.....+.+.:.:.:.1.5.1...X o.g.}.o.+.+.+.%.*.*.6.H.*X8X}.9.",
"[.J...X /.'..XD.4.p.B.g.d.N.c.(.:XN.k.k.k.k.k.!.(.2X4XV.E.G ] ! ~ A w o + . O.+.1.a.*.+.+.%.+. .. 1.}.%.+.*.*.+.+.+.+.%.a.g.6.L.",
"o.0.[.'./...5.XX,X1X$X_._.%X8XrX+Xx.k.k.x.k.k.!.OX^.yXQ | | | W ( Q S a a A + *.%.a.;.+.+.+. .:.1.s.P.>.1.%.:.%.+.+.+.;.g.g.s.5.",
"5.o.,.*XD.+.%.4.d.I.j.b.m.l.@X9X2Xn.c.x.k.x.x.!.tX~ } | | | | | } [ ( a a a a A @ %.;.&.+.O. .X.t.s.K.X.+.+.+.:.*.+.+.f.5.*.+.:.",
"+.5.+.5.'.*.4.4.p.y.y.p.z.l.l.x.<XY.k.!.x.k.S.] [ } | | | | | | | | | _ L a R a L A 2.w.=. . .X.%.s.P...O.%.+.+.5.-.;.c.+.+.+.+.",
"+.+.5.%.{.6.*.4.p.y.p.l.b.b.x.k.!.-X!.!.!.Q./ } | | | | | | | | | | | [ ! I p R S R D 2.y.&.$.X.X.s.Y.X.X.%.*.*.:.i.c.:.+.+.+.+.",
"+.+.*.4.D.G.4.4.p.i.p.b.b.n.n.x.x.<X!.k.Q.[ } [ [ | | | | | | | | | | | { R L I R E P A $.=.=.=.=.}.g.:.#.=.;.;.$.+.;.%.+.+.+.+.",
"+.+.+.d.D./.4.4.p.e.p.z.b.b.m.m.!.<X<XS.Q U Q } } | | | | | | | | | | | | _ R R R R R P e &.w.4.).1X-.1.+.%.*.$.+.+.*.%.+.+.+.+.",
"+.+.%.j.).5.4.y.y.p.l.m.m.m.m.m.!.6XoXF P ~ } } } } | | | | | | | | | | | | R R E E E E E oX_.L.s.*X*.$.:.+.$.+.*.+.$.%.+.+.+.+.",
"+.%.5.4..X;.:.u.p.p.p.p.p.b.b.b.k.8XpX/ [ } [ [ } [ } [ { | | | | | | | | | ~ E E E E E W a q.=.;.*XA.;.%.+.*.*.$.+.%.;.+.+.O.+.",
"X 5.+.Z.XX&.;.u.4.4.y.y.p.h.h.B.B.5X( ` | [ [ | } ~ ~ } [ ~ } | | | | | | | ! R E E E E E R t =.;._.*X:.*.O.*.*.*.+.+.;.+. .X X ",
"..+.X .XD.X.$.$.*.4.u.y.y.h.M.p.z.uX| | { [ | | | { | [ | } | | } | | | | | _ I S E E R R c A u.;.w.8X}.=.$.%.%.+.*.+.;.+.X X X ",
"@.X D.2X4... . .O.$.4.4.u.j.y.u.f.! [ } | | | { ~ | { | | | | | | | | | | | [ R E E E R R P c 4.M.M.+X8X_.*.:.:.%.%.O.w.&. .X X ",
"6.'.2X2X=.X  . . .X.%.4.d.d.j.4.W.[ ( [ | | | [ [ { ) [ [ | | | | | | | | | [ E E E E S R R S oXM.u.u.I.eX3XG.4.:.%.;.w.=.$. . .",
".X).'.-X&. . . . .X.$.u.j.d.y.d.yX| | | | | | } ~ [ { [ { | | | | | | | | | [ W E E R E P S S W.p.p.p.d._.eXsXqX,X.X`.Y.I.L._.'.",
"+.X @.).-.X.X. . . .%.j.:.*.:.*.H } | } | | | } | [ | } | | | | | | | | | [ _ E E R S R S R S e m.p.p.p.u._.sX&Xj.).).L.Z.8.7.+.",
"o.O. .H..... ...X X 5.4.%.%.%.:.H ( { ` | | _ { } ( } ` ` | | | [ [ | | | | [ E E S L R R R E w h.l.p.p.p.n.rXp.:.*.*.*.+. .X X ",
". +. .H.X +.X  .X X 4.*.%.%.%.q.F T ~ ! | | _ ` [ _ } ` [ } { | | | | | | | ~ E E R R R L S L p Q.W.~.Q.t H uXW.:.%.+.*.+.X. .X ",
"X >.+.J. .X o...+.%.+.+.+.%.+.).: > 1 i i K ^ / / } | Q } _ ~ } | | | [ ~ | E R I R E I L R S a b k m m B B C C n n N y +.+. .X ",
"@.>.,.).9.X X ..4.%.+.+.+.*.).8.: > > , > > : > : 1 i K / ( } | | | [ ~ [ [ a R P L I P L p 7 4 k k k k k m Z B C Z V C l X +. .",
"+.+.5.{.4X<.+.+.*.+.+.+.5.{.<.+ ; > > > > > > > > > > > > > : 9 i K K Q I U 7 R a 7 6 4 - # # # k b k k b m B B V C n n x o O.*.",
"+.+.d.1XaXwX/.*.O.O @ t yX' b m ; = = : : > > > > > > > > > > > , , , > > = % - # $ $ $ # # # 2 b k b k b k B B C C V V V n 6 O.",
"%.*.XXsX5XiXyX7 3 s h x Z C C M l 0 9 < : > > : > > > > > > > > , , > > > * * * $ $ $ $ # # $ 6 b k b k b b b m Z Z Z V Z N 7 O ",
"=X=XoX' b l n x z x 3 x n M m M V V v v z q 9 1 ; > > > > > > > > > > > > * % # $ $ $ # $ $ $ f b j b b b b b B Z Z Z V Z V B F ",
"R.U V v n q Z Z B C h k h g d d z g h x d v m k f f q 5 1 : > > > > > > = % # # # # # $ $ & 5 k b k k k b k m C V V Z C n M M  X",
"r v n C V V V Z Z Z Z C B B B b v b k j v h d x m m b g k g 8 q 0 0 5 5 3 3 4     - 2 5 d k k k b m k h k v V V C C n Z V n H +.",
" .r Y l V C Z Z Z V C C C Z M V C C C B C b v g 8 8 z x b M v z j j z 8 h g k b b b h h k k k k k g v C C v z 8 s d h f f e O.+.",
"6.O...>.+ c C Z b B Z B C n C C C n M Z V n M c r r t tXW.3.r T n m m x h k k k k b k k k j f j k k v B Z Z z l 2.@ e tXE.2.;.;.",
"+.O...%.X . y @ O F Y r x m n c Y ' J @ O.+.&.4.u.:.v.=Xr.r.i.v.w.W.u T N M C n B k d k m k q B Z Z B B M n V C c y (.0X4.*.+.+.",
"+.+.+.+.o.X O.o.+.+. .+.4. ...*.*Xf.%.4.4.4.4.u.e.=.`.@Xe.r.c.k.r.i.k.@Xc.E.~.' U b C Z C B x M B b V n M C Z n F @ 9.XX%.+.+.+.",
"+.+.+. .5. .+.+.+.+.+.4.+.+.+.6..X5.4.:.y.4.u.y.e.e.$XI.e.r.c.c.r.r.r.#XOXx.z.!.(.2XeXeXiX~.yX' U ' ' u J t R.4.d.1.5.).+.+.+.+.",
"+.+.$.o.*.5.+.+.+.+.+.+.+.+.+.|.H.%.4.&.p.4.y.y.i.e.&XI.r.r.N.V.k.r.r.#X=XOX,XqX9X&X'.&X2X8X@Xn.p.b.M.p.u.u.a.5.-.>.K.).+.+.+.+.",
"5.d.4.+.+.g.:.+.+.+.1.O.+.+.6.;X;.-.4.:.u.u.u.u.p.u.&XY.r.i.c.r.i.c.i.%XdXaX6X(.b.^.b.b.n.^.,X9X&Xb.p.B.M.h.4.*.1.[.XX&XO.O.+.+.",
"*.+.a.%.+.5.g.5.*.a.%.+.O.>.XX].o.+.%.a.y.p.u.p.u.p.$XY.r.c.r.r.r.y.M.4XdX%Xb.p.^.h.l.b.b.n.B.z.%X9X'.u.h.4.*.).*XL.X.L.H.O.+.*.",
"+.%.;.:.+.%.g.:.a.*.+.8.P.0.P.[.Z.C.Z.}.*X>X*X_.p.p.$X@Xu.v.e.w.u.i.p.aX,Xp.p.V.M.p.p.p.b.l.B.w.:.N.9X*Xp.4.)..Xs.>..  .0.].6.*.",
"%.%.;.%.1.1.}.XX}.|.>X2XK. . ...Z.D.<.1.a.`.*X9XqX9XsX8XM.v.e.y.y.i.(.9XV.M.c.u.u.p.p.b.l.k.z.u.w.u.b.,X9X8X).X.+.>. ..  .9.3XJ.",
"8X=X).).*X*X,XL.%.o.Z.[. .X  .,.>.-...o.w.y.4.y.p.`.6XrX+XM.OXd.p.y.*X*Xu.;.=.=.;.u.i.l.u.j.4.;.4.u.u.j.eX9X*. . .%.X  .o.+.XXeX",
"eX4X.XK.:.f.j.5.+.o.7.7.X  .*. . ...1.%.f.y.4.4.4.u.p.1X*Xy.u.j.u.u.=X_.y.=.&.=.=.;.p.p.j.j.f.4.4.:.4.4.8XXX+... .+...+.+.4.C.eX",
"H.&.*.+.+.5.g.*.+.O.7.o. .,. .X  . .o.s.c.p.y.y.u.u.B.m.8Xl.u.f.:.u.XX_.:.&.$.$.$.=.y.c.4.4.d.4.;.&.:.4.XX{.+.+.o.,.+.+.+.+.4.;X",
"O.%.*.+.+.+.g.*.+.+.0.+.,. .X  ..  ...w.N.g.*.4.4.f.y.y.*X`.e.c.:.:.].[.*.X.X.O.O.;.;.d.4.&.*.4.$.*.+.&.|.[.+.+.+.5.+.+.5.+.6.+.",
"+.&.;.+.+.+.d.5.+.+.P.1.+. . .X X  .+.&.4.M.d.4.d.&.*.y./.3X4.4.u.:.Y.|.%. .O.X.$.X.$.d.%.*.&.*.4.+.+.+.).XX+.+.+.d.,.d.%.5.H.o.",
"+.;.;.;.+.+.*.d.+.+.XXf.1.o. .o.X.%.&.%.*.5.f.d.*.$.&.w.4.4X4.*.4.;.D.%X;.=.#.$.O. .O.u.:.*.*.+.*.+.O. .,.*X*.+.+.%.s.g.5.|.*.+.",
"&.+.+.+.*.%.+.4.f.*.;XN.g.*.+.+.%.;.%.$.*.$.+.+.+.*.4.&.%.,X4.+.%.5.4.;X*.O.$.#. .O.+.*.5.+.+... .O. .X O.,XG.O.+.+.*.N.;XD.+.+.",
"+.O. .O.O.%.&.+.*.d.7X5.1.1.+.+.;.;.;.&.$.*.&.;.&.4.y.+.+.;X4.+.+.%.5.4X4.O.$.w.*.+.+.+.a.+... .X X O. ./.2X1XK.+.&.s.;X*X5.%.:.",
"1.,.o. ...+.+.*.;.;.>X4.;.a.%.-.;.$.+.+.+.+.+.+.+.+.=.%.*.8X4.+.+.+.d.9XT.+.+.;.*.+.+.+.5.o.X X X X  .P.=X<.>.F.D.}.0X*X;.f.&.%.",
" .X >. . .+.+.+.-.*.XX%.*.*.+.+.&.%.+.+.+.+.O.O.+.+.+.+.6.0X*.+.*.5.j.wX4X%.+.;.*.+.+.+.5.O.X X X X <.>XZ. . .X. . .).C.+.d.*.*.",
".  .o... .O.+.+.+.;.).+.*.o.O.O.&.+.+.+.+.+. . . . . . .).wXXXI.d.C.XXeXeX;X5.+.;.+.+.5.+.+.X X X  ..X{.o. .X  . . .O.XX1.d.5.o.",
" .. @...X +.+.+.+.%.{.>.+.X X  .%.+.+.%.+... .X X  . .,.:X[.P.[.{.=X;X,XwX;X.XP.a.+.5.*.+.+.X X X 0.XX+...X X  . .X  .C.`.d.O..."
};
