/* XPM */
static char *wall[] = {
/* columns rows colors chars-per-pixel */
"64 64 236 2 ",
"   c #277D5F",
".  c #06487F",
"X  c #0E5D7A",
"o  c #135A78",
"O  c #284F7E",
"+  c #177968",
"@  c #146C76",
"#  c #166A7B",
"$  c #237768",
"%  c #207576",
"&  c #AE5F32",
"*  c #9D7026",
"=  c #B4672E",
"-  c #B96936",
";  c #C4753C",
":  c #99594C",
">  c #B56946",
",  c #AA6A59",
"<  c #895A69",
"1  c #9D6969",
"2  c #956C76",
"3  c #A96F69",
"4  c #C37642",
"5  c #219701",
"6  c #259900",
"7  c #2B9C00",
"8  c #21970B",
"9  c #2D9C0C",
"0  c #319F00",
"q  c #219618",
"w  c #35A100",
"e  c #39A400",
"r  c #38A30B",
"t  c #38A217",
"y  c #1F9032",
"u  c #219525",
"i  c #369F2E",
"p  c #259538",
"a  c #359A3A",
"s  c #38A127",
"d  c #39A235",
"f  c #61972C",
"g  c #1D8B47",
"h  c #1F9247",
"j  c #1B8657",
"k  c #1F9056",
"l  c #299149",
"z  c #339747",
"x  c #2B8D5A",
"c  c #299356",
"v  c #359A56",
"b  c #3AA147",
"n  c #1C8B65",
"m  c #19867A",
"M  c #288568",
"N  c #2E9170",
"B  c #40A645",
"V  c #8A9A2D",
"C  c #DCB825",
"Z  c #DFBB28",
"A  c #D6B739",
"S  c #E2BE2A",
"D  c #E6C22D",
"F  c #EDC932",
"G  c #ECC835",
"H  c #F3CF36",
"J  c #F3CF38",
"K  c #F4D13C",
"L  c #A79557",
"P  c #B4AB71",
"I  c #D09749",
"U  c #D3B851",
"Y  c #C5B76E",
"T  c #C3B774",
"R  c #D2C756",
"E  c #D0CF57",
"W  c #E8C94A",
"Q  c #F6D448",
"!  c #F8D74D",
"~  c #F9D954",
"^  c #FADC5C",
"/  c #FCDE62",
"(  c #ECD873",
")  c #FDE066",
"_  c #FFE36D",
"`  c #FDE270",
"'  c #064B83",
"]  c #094D85",
"[  c #064D8A",
"{  c #0A4F89",
"}  c #07518C",
"|  c #08548D",
" . c #0B5889",
".. c #12588A",
"X. c #054F92",
"o. c #075593",
"O. c #095691",
"+. c #075896",
"@. c #0A5A94",
"#. c #065699",
"$. c #085699",
"%. c #07599B",
"&. c #0B5D9A",
"*. c #105694",
"=. c #135A95",
"-. c #1C5D94",
";. c #125D9B",
":. c #27538A",
">. c #186988",
",. c #187588",
"<. c #0A619E",
"1. c #066898",
"2. c #196996",
"3. c #13619D",
"4. c #1C639C",
"5. c #147395",
"6. c #267B87",
"7. c #23669B",
"8. c #27699D",
"9. c #356F96",
"0. c #2B7699",
"q. c #065DA2",
"w. c #0A5DA1",
"e. c #135EA2",
"r. c #0B64A4",
"t. c #0868A6",
"y. c #0A65AB",
"u. c #0A6AAB",
"i. c #1464A3",
"p. c #1769A5",
"a. c #146AAB",
"s. c #1A6BAB",
"d. c #0E70AB",
"f. c #1972AA",
"g. c #0A6DB2",
"h. c #0869B4",
"j. c #156AB3",
"k. c #0B72B4",
"l. c #0A74B8",
"z. c #0975BA",
"x. c #1373B3",
"c. c #1775B6",
"v. c #137BBB",
"b. c #246CA3",
"n. c #2A6EA3",
"m. c #226FAB",
"M. c #3E6EA2",
"N. c #2D72A5",
"B. c #2875AA",
"V. c #3174A6",
"C. c #337FA4",
"Z. c #3276AA",
"A. c #347AAC",
"S. c #3A7EAD",
"D. c #2A79B2",
"F. c #367DB3",
"G. c #4B5F92",
"H. c #4F6693",
"J. c #6C6E8C",
"K. c #4F79AD",
"L. c #876E89",
"P. c #1B8991",
"I. c #308B90",
"U. c #1C84BC",
"Y. c #3B83AB",
"T. c #3890AC",
"R. c #2A83B8",
"E. c #3C83B3",
"W. c #3886B8",
"Q. c #429B94",
"!. c #4286B4",
"~. c #448AB5",
"^. c #448DBB",
"/. c #488DB9",
"(. c #518EB1",
"). c #4793BB",
"_. c #4C93BD",
"`. c #658AAD",
"'. c #6C95B7",
"]. c #7494B5",
"[. c #53ACB5",
"{. c #72ACB9",
"}. c #1986C3",
"|. c #2F91C5",
" X c #3698C6",
".X c #39A0CB",
"XX c #3DA9D4",
"oX c #39B3EA",
"OX c #3EB7EA",
"+X c #4B98C3",
"@X c #539BC4",
"#X c #539BC5",
"$X c #608FC2",
"%X c #49A4CC",
"&X c #59A1C6",
"*X c #56A5CA",
"=X c #5BA4CB",
"-X c #5CACD1",
";X c #44B5DD",
":X c #5CB2D5",
">X c #64A9C6",
",X c #62ACCD",
"<X c #70A2C2",
"1X c #78B4CB",
"2X c #63ADD1",
"3X c #65B3D3",
"4X c #6CB8D6",
"5X c #72BAD8",
"6X c #46B8E4",
"7X c #43BCEC",
"8X c #6EC3DB",
"9X c #77C4DD",
"0X c #47C0ED",
"qX c #4BC5ED",
"wX c #7BC9E0",
"eX c #A19A85",
"rX c #B8B689",
"tX c #A9A791",
"yX c #ADB69A",
"uX c #8E99A6",
"iX c #91B1B8",
"pX c #A8B7A4",
"aX c #B0C4B1",
"sX c #D1C38C",
"dX c #E6D68A",
"fX c #91B4C7",
"gX c #83C6DA",
"hX c #AFC2D2",
"jX c #B8C8D6",
"kX c #87CCE2",
"lX c #92D4E6",
"zX c #D1DAE5",
"xX c #D2DCE5",
"cX c #E6EBF0",
"vX c #F4F7F9",
"bX c #FEFEFE",
/* pixels */
"' . =.' ] | | | | 4.#X&.' *.*.{ { }  .| | [ . . . ' [ ^.8.' . { { {  .p.&XO.| O.A.E.m.o.| | ' . -.Y.| . { . . . [ . ] i.W.*.| } ",
"] ' e.| | | | | | A.:XT.i.;.;.e.}  .| |  .} . . . [ A.n.' . . . { ' { &X~. .| | [ e.S._._./.!.~._.[ . | . ' *.=.e.;.a.i.$.S. .} ",
"| =.s.i.=.|  ...2.Y.0.Y.!.p.| ] *.O.| | | } . . ' N.N.[ ' ' . . . *.!.,X@.| | [ *.*.| o.b.~.,X8X@X*.=.. { | . ' { $.o.| | 8.S.o.",
"o.O.i.| i.i.5.N s e e e v 9.N ....3.O.o.| } ' ' 7.+XS.).^.Z.V.Z.n.!.5X~.| | | { ;.O.o.| | | &.5X=Xs.s.;.o.] ] } $.o.| | | | A.E.",
",X/.).!.!.(.d e e e e 0 0 a a z b 0.i.;.4.S.V.n.-X%XN.-.. . ] ..-.V.,XW.| |  .;.;.e.;.w.|  . .#X=X&.@.| | | | | +.o.+.| | | o.@X",
"_.N.N.F.I.t w w 0 7 0 7 0 0 r e e d I.F.W.7.O.;.D.F.. . . . . . . { V.B.p.<.i.@.' | | i.a.o.o.N.2X$.| | | | | &.| | %.o.| |  .!.",
"!.| | &.c 9 8 5 6 8 5 7 6 7 7 0 e e d ..;.e.| ' p.S.' . . o   o $ ..8...| ;.@.| | o.| | $.a.%.+.,Xm.| | | o.%.| | | | %.| | | ;.",
"!.O.|  .>. . .@ o y 5 5 6 7 7 7 7 e e x | } ' ' V.-.[ ..l r t t z x z i z % | | | %.| | | | i.%._.^.&.+.%.%.| | | | | o.%.| | | ",
"S.7.| | | ;.{ ' X + g 8 5 5 5 5 7 7 w t ,. .[ [ N.{ $ s e w e e t e e e e e l ..{ o.o.| | | o.3.7._.&. .o.+.%.%.O.| | | %.o.[ | ",
"n.~.| | | o.;.$.' . . X j 8 5 5 6 7 7 e c o.o.4.N.$ r e e w 7 7 6 7 7 0 e e e z X [ o.| | | | s.@./.o.3.O.| | O.+.+.| o.o.' [ [ ",
"b.-XO.o.o.%.a.w.| } } | ..h 8 q 5 5 7 7 t 2.%.+Xm r w 7 7 6 6 7 7 7 6 6 6 7 w e M | o.} | | ;.s. .W.3.} i.| | | | o.%.%.' . . ' ",
"7.^.b.O.| | O.p.+.| | | 3.1. .# q 5 6 7 e N W.I.r e 7 7 7 6 5 5 5 6 6 8 p 5 6 w i O.o.| | e.p.=.' ~.&X=.3.&.| | | | | %.' . . . ",
"V.-.F.*.;.3.=.i.>.x a s s a v p 5 5 5 6 0 v ~.s 0 7 5 5 5 5 5 5 g u p u + + j u w >.| | i.&.[ @.. 8.4.!.i.=.o.| | | | | [ . . ' ",
"V.' E.n.. *.s.m c t e e e e e w e 0 6 5 6 B v 0 7 6 5 5 h + u g @ >X+.{ X ' | | + ,.| 3.|  .' { { V.] 7.#X@.| | | | | | } . . 3.",
"{ . .._.... 2.N d e w 0 7 7 7 6 7 7 7 6 5 t 9 6 5 5 5 5 h <. .1.b.2Xo.' . ' } | o.%.=.| | | ] . *.A.} &.D.&X!.+.| | | | o.' N.Y.",
". . ' 8.!.x r e e 7 7 6 7 7 6 5 7 6 6 6 6 7 6 7 7 0 e e e t z n I.+X' . . ' | o.$.e.o.O.o. .] ' *.Z.A.;. .4.~.@XE.Z.7.+.A.+XA.' ",
"{ . . . v e e e 7 7 6 5 5 5 6 5 5 5 6 7 6 f a 5 6 6 7 7 w w e e e v # [ [ ' | | &.&.=.&.3.;.' . ' s.^.{  .| | o.+.&.7.N.+X3X^.n.",
"/.V.{ $ e e w 7 7 6 5 5 5 h n 6 7 w 0 6 u V.L.P.u 5 6 6 6 7 7 w e e a o . ' [  .=.y.@.| | O.| ' . =.^.O.} &.@.| |  .| o.i.s.7.Z.",
"] 8./.b e w 7 5 6 5 c 8 8 T.[.9 w 0 6 5 6.h.L.K.U.h 5 5 5 6 7 7 0 e 0 z o ' } &.@.i.%.| | | ] &.;.i.F.*.=.O.&.@.| | | &.s.s.s.;.",
"3.} >.e e 7 8 q 5 k 5.P.U.d.b e 0 7 5 8 y.j.K.3 U.d.h 5 z 5 6 6 7 0 t x o . } =.3.$.q.o.| { ' [ e.i.A.[ { |  .<.o.| | y.3.@.| @.",
"o.;.,.e w 5 n g ,.t.t.u.f.z e w 6 5 5 k h.h.j.3 H.h.,.M Q.5 5 5 7 7 0 0 a o [ =.i.| +.q.%.} ] [ *.p.S.{ [ |  .o.3.o.q.a.o.| | | ",
"| | 6.e 7 p >.1.u.t.u.d.v e w 7 6 5 5 n z.j.y.J.1 g.u.y.u.q 5 8 6 7 7 e e z { O.s.i. .+.q.$.[ } [ b.F.[ [ o.o.O.%.y.j.&.| | | | ",
"| | ..t h C.%.1.g.t.t.I.e e 7 7 6 p n n z.j.j.F.> J.r.r.r.5.M k 5 7 7 0 e r >.<.&.&.r.O.+.#.#.$.#.^.m.&.| $.q.%.o. .%.O.| | | | ",
"| | o.x I.A.%.r.u.1.d.d e w 7 6 6 q %Xj.z.j.v.j.3 , <.<.%.o.!.,.u 5 5 7 e e Q.W.7.@.3.&.%.$.q.&.F.-X$.&.{ o.+.o.O.o.o.o.| | | | ",
"| | O.f.E.3.&.t.t.y.d.N e 7 7 5 5 6 [.U.z.d.u.t.J.- G.$.X.{ n.n.# 8 y 7 e e M @.A.&X*X@X/.W.W.F.s.@X%.X.%.| @.@.O.| o.o.| | | | ",
"| o.3.3.).&.%.u.t.u.f.d d 7 7 5 q p 9X}.k.g.u.r.9.& < O.' ' 8.4.o.j + 5 w e M %.@.A.+XD.s.&.q.%.%.@Xm.o.O.| @.o.O.O. .o.| | } | ",
"] =.} N._.o.w.w.<.r.5.P.r 7 7 6 h {.lX=Xx.u.<.<.$., ; :.' ' 7.{ o.o.# 8 w e ,.@.&.r.+Xr.r.y.y.$.$.E.@X&.+.| O.@.O.o.| %.| ' . . ",
"{ } ' ).n.| o.X.O.<.<.a e 7 7 5 q 3XR.D.3Xf.r.&.$.1 ; < ' -.-.-.Z.D.b.j 7 a @.<.r.<.@Xu.r.k.h.%.%.q.-X+Xo.| O.+.o. .o.%.| . . . ",
"| ' N.-X=.} ' [ } o.5.e e 7 5 5 k %Xf.t.~.+X#Xb.$.J.- : *.E.-.8. .b.E.T.e ,.<.p.t.g.-Xh.h.l.l.c.x.x.W.4XE.%.+.+.O.| o.q.+.' . . ",
"4.!.:X:X$.' ' ' { } @.t e w 5 u k +Xr.<.&.t.f.~.^.K.> = '.-.] { O.3.a.p.Q.*Xc.r.r.s.@Xt.u.k.v.}.x.t.u.D.5X>XA.<.&.o.$.q.%.o.[ ' ",
").F.W.+X$.' ' ' ' ] o.z e w 5 n I.R.@.O.+.%.o.O.$.O., - 2 $.O.*.O.O.i.y.t.W.E.Y.F.^.f.u.u.u.v.l.u.u.u.t.W.9XkX5X=X_.W.D.D.A.E.W.",
"O.' =.!.O.[ [ ' . ' O.I.e e 7 u ).b.*.{ o.+.O.o.o.| 3 ; > N.{ [ [ { @.x.r.r.t.f.3X#Xr.u.u.u.v.d.z.u.u.u.y.W.kX+Xf.E.E.Z.n.7.7. .",
"] { ' V.] ] ' [ . ' <.3.z e w 8 ~.&.e.N.A.E.E.~././.L.- & K.$.{ { { X.r.r.r.r.t.!.hXjXiXfX#Xc.v.h.z.g.a.u.l.gXr.<.&.@.+.| ' . . ",
". O.' V.' ] ' ' ' . 3.o.>.z e 7 T.E.^.W.4.[ o.&.m.F.`.- = uX@.;.o.o.#.r.x.u.1.`.cXzXN.xXjXhX'.U.g.g.z.z.l.x.kXa.<.@.O.+. .} . . ",
". *.{ V.' ' { ' [ | | | |  .M b N ..O.e.O.' { } X.$.M.4 ; 1 N.$.w.+.&.u.t.1.8.cXvX`.`.bXfXuXcXy.U.k.z.z.u.R.lX).<.%.@.O.|  .' . ",
"{ =.*.!.7.. ' { &.| | | | +.!.8.o ' ' *.] { ' | o.3.:.4 ; & _.r.r.a.u.u.t.1.hXbXjX1.jXbX].].bX`.d.v.z.z.g.=XlX#X<.@.@.+.+.+.| ' ",
"*.} 3.~.3X4.[  .%.| | | @._.-.. . . ] ' | . *.3.i.3.&., - & '.w.t.u.l.h.t.t.zXcXK.p.vXvXb.uXbXfXd.*X4X4X2XkXlX2X<.&.@.O.| | | O.",
"| | i.,X9X4XY.+.O.| O.b.,X_.' . . . ' ' ' { ' | O.&.@.1 = = uXq.t.t.U.k.u.u.h.K.y.'.cXzXq.fXbXfX2.#X XU.+X2XwX3X<.+.1.@.| +. .1.",
"| +.@XwXwX9X5X+XN.Z.@X9X9X_.' . . . { ' ' | | O. .3.&.1 4 - 2 u.g.l.v.z.l.u.h.h.h.y.:.fX>XjXvXfX1.k.l.k.q.q.W.4XA.@.@.o.o.o.O.| ",
"@X@X2X#X~.V.<.r. .@.A._.3X,XV.' . ' [ ' '  .@.&.%.<.<.2 ; ; , g.u.u.k.d.k.l.z.g.q.e.:.=XR.c.$X^.u.k.z.u.w.#.#.m.*Xb.o.O.|  .3.~.",
"4.o.;.=.o.| %.o.| | | o.+.3.V.V.' . X.' ' &.&.&.1.%.<.L.; - : W.c.k.U.l.k.u.k.z.y...e.|.h.c.v.h.z.z.l.y.a.q.;.i.p.@X4.O.O.B.,X).",
" .} O.*.{ o.q.| | | | |  .' { -.n.. [ ' | i.&.&.%.%.1.J.; = > <X>X{.).B.h.g.k.g.y.O w.+Xz.y.v.}.z.k.g.y.w.a.&.%.| 8.-X&X=X,XN. .",
"o.| { $.[ [ | +.%.+.+.%.%.<.r.i.!.e.e.i.e.w.&.9.`.P P P - ; * W E E _ _ dXsXtX`.e.:.h.2Xh.h.z.v.k.k.g.u.w.q.#.%.+.O.^.wX5X3.| | ",
"o.| o.$.. ] | | | | | | | <.&.o.W.j.j.e.J.P U J ! / E V ; ; * f E _ _ _ _ _ ` ` P eX].:Xz.h.k.k.v.k.g.u.y.y.t.r.r.&.N.9XY.%.%.%.",
"| } { *.. ' }  .| | |  .=.$.[ X./.K.eXU K H J ~ _ _ _ R I I I E ` ` _ _ _ ) ) ) L / _ dXuXm.k.k.v.x.u.u.u.t.u.y.x.j.R.4Xr.o.| | ",
"| | [ } { . } | | | | O.&.| o.-.tXW K H J H K / _ _ _ _ _ ` ` _ _ ` _ _ ~ ! ! Q L ! / _ _ dXuXk.k.v.k.u.u.r.t.y.u.r.b.@X| | | | ",
"| | o.' @.] } | | | | <.| ..L U F H J H H J K ` _ _ _ _ _ _ _ _ _ _ _ _ / ! ! Q G ! ! ~ ` _ _ sX`.k.k.u.r.r.t.<.i.<.3.E.| | | | ",
"| | o.| =.3.| | | | O.o.H.I C D H H H H H J K _ _ _ _ _ _ _ _ _ _ _ _ _ _ ) ^ ! ! ! ! ! _ _ _ _ ( uXx.d.t.r.r.3.O.@.N.E.| | | | ",
"i.p.&.o.| a.&. .o.@.f.`.C C C C H H H H H H H / _ _ _ _ _ _ _ _ _ _ _ _ _ _ _ _ ) ) ) _ _ _ _ _ _ ` pXXXW.U.f.3.=.E.).@X| | | | ",
"| | i.@. .3.R..XXX7XfXA C C C C D H H H H H K K ) _ _ _ _ _ _ _ _ _ _ _ _ _ _ _ _ _ _ _ _ _ _ _ _ _ ` aXoXoXOXOXqX;XXX%XW. .| @.",
"| | %.f..X0XOXoXoX1XZ C C C C C C S G J H K F H K ~ ) _ _ _ _ _ _ _ _ _ _ _ _ _ _ _ _ _ _ _ _ _ ) ~ Q G iXoXoXoXoX7XqXqXqX;X3. .",
"O.O.|.qXqXoXoXoXoX1XC C C C C C C C C S G K H H K H K K ! ! ~ ~ ^ ^ / / ) _ _ _ _ _ _ _ _ ) ^ Q J G Z C U oXoXoXoX7XqXqXqXqX:XA.",
"3X*XqXqXqXoXoXoXoXoXiXU C C C C C C C C C Z D D H H H H H H H K H H H H H H K Q ! ! ! Q K H F D Z C C C Y oXoXoXOXqXqXqXqX;X@X9X",
"9X,XqXqXqXqXOXoXoXoXoX6XiXrXU C C C C C C C C C C S S D D F F K H H H H H H H H F F D D S C C C C C U yX;XoXoXoXqXqXqXqXqXR.N.9X",
"N.+.f.;XqXqXqXqXoXoXoXoXoXoXoX-XfXyXrXU A C C C C C C C C C C D C C C C D Z C C C C C C C C A P yXfX6XoXoXoXOXqXqXqXqX6XB.O.@.*X",
"| o.| O.W.0XqXqX0X0X0X7XOX7X7XOXoXoXoXoXOX:X3XfXiXpXpXyXrXrXP T T T Y T T P rXrXyXyXiXiX1X3X0XOXOXOXOXOX0XqXqXqXqX0XT.3.&.| 3. .",
" .%.%.| } @.R.;X6XqXqX6X;X;X6XqXqXqX0X0XOXoXoXoXoXoXoXoXoXoXoXoXoXoXoXoXoXoXoXoX7X0XqXqXqXqXqXqXqXqXqXqXqXqX;X XB.i.&.p.O.;.V.| ",
"| %.%.&.|  .&.p.o. ._.p.3.{  ...B..XOXqXqXqX0X7XOXoXoXoXoXoXoXoXoXoXoXoXOX0XqXqXqXqXqX0X;XXX.X.X.X|.T.R.B.#Xo.|  .O.a.s.=._.@.| ",
"o.o.| | +.| | <.p.+.&Xc.s.@.| | O.%. .f.T.6XqXqXqXqXqXqX0X0XqX0XqXqXqXqXqXqXqXqXqXXXR.&.3.O.| } ' } ' . ] *XB.o.| | &.f.@Xn.| | ",
"| { ' } | O.+.| +.p.2X3.3.3.| | %.%.%.%.1.+.f. XXXqXqXqXqXqXqXqXqXqXqXqXqXqX0XXX4.|  .| 3.O.' . . . } ' Y.:X-XZ.| +.4.*X@X3.$.%.",
"=.*.{ ' [  .| +.%.@.*X&.%.i.$.+.%.o.| | | | | | O.<.R..X;XqXqXqXqXqXqXqX;XW.5.q.o.| | o.3.[ . . . . . Y.@X-.*.n.B.^.4X@X&.a.o.@.",
"' ' *.' ' | | | $.%._.o.@.O.|  .o.O.| | | | } }  .| O. .3.4Xf.B.B.R.R.9X,X1.| #.%.| |  .3.{ . . . . -.*Xn.' ' [ ' ' E.n.| a.@.=.",
". . | { . } | | | &.!.| =.} [ } +.| | | | | ' ' ' ' ' ' Y.8X_.D.p.f._.9X9X&X&.| %.| | 3. .} . . . { ).E.{ ' ' ' ' . } _.<.i.3.{ ",
". . { ' ' } | | | O.~.@.} . ' ' O.| | | | } . . . ' ] =.&X^.Y.!._._.*X=X9X&X).A.i.+.=.@.| } . . . 8.+X .] . . ' ' . ' b.W.i.| ] "
};
