/* XPM */
static char *exit[] = {
/* columns rows colors chars-per-pixel */
"64 64 252 2 ",
"   c #1D100D",
".  c #1C1919",
"X  c #241B18",
"o  c #301411",
"O  c #2C211C",
"+  c #3A271C",
"@  c #1D1D2D",
"#  c #282526",
"$  c #392A28",
"%  c #322C34",
"&  c #393636",
"*  c #4F1A16",
"=  c #422C1E",
"-  c #632419",
";  c #452A21",
":  c #4A3325",
">  c #56312B",
",  c #55392A",
"<  c #463A37",
"1  c #73322C",
"2  c #584435",
"3  c #754D2E",
"4  c #674934",
"5  c #755338",
"6  c #7C6C38",
"7  c #182D4A",
"8  c #2D354B",
"9  c #183C64",
"0  c #373F61",
"q  c #473D4A",
"w  c #5C3B5A",
"e  c #3D4350",
"r  c #1A426C",
"t  c #0A477C",
"y  c #06487F",
"u  c #174878",
"i  c #2B4A73",
"p  c #4A4647",
"a  c #564B47",
"s  c #504F53",
"d  c #5B5556",
"f  c #764A49",
"g  c #665548",
"h  c #775B44",
"j  c #675A58",
"k  c #775959",
"l  c #7B6149",
"z  c #796456",
"x  c #4D5472",
"c  c #735A6A",
"v  c #586278",
"b  c #696667",
"n  c #776968",
"m  c #6F6D74",
"M  c #797578",
"N  c #88312C",
"B  c #893332",
"V  c #963533",
"C  c #A7393A",
"Z  c #C33D3A",
"A  c #924837",
"S  c #845B3A",
"D  c #A24832",
"F  c #A7563A",
"G  c #B95A3A",
"H  c #956A3A",
"J  c #C05F3E",
"K  c #B53F41",
"L  c #8E5351",
"P  c #B94445",
"I  c #AB514D",
"U  c #876446",
"Y  c #9B744B",
"T  c #876C55",
"R  c #917154",
"E  c #B86544",
"W  c #AD764D",
"Q  c #A74C63",
"!  c #866664",
"~  c #887867",
"^  c #867B7A",
"/  c #987876",
"(  c #AB776E",
")  c #C15D52",
"_  c #C67049",
"`  c #6E9951",
"'  c #A1813E",
"]  c #939F59",
"[  c #B8994D",
"{  c #A98654",
"}  c #B68A5A",
"|  c #B39050",
" . c #BBA155",
".. c #88837E",
"X. c #958873",
"o. c #AE946F",
"O. c #B5A478",
"+. c #D08E59",
"@. c #DC945A",
"#. c #E6995E",
"$. c #C4A757",
"%. c #D3B55B",
"&. c #CA9967",
"*. c #D49963",
"=. c #CFB36D",
"-. c #EBB06F",
";. c #D9C25E",
":. c #DAC363",
">. c #F1CC69",
",. c #E9D369",
"<. c #F8E36D",
"1. c #F7E377",
"2. c #064B83",
"3. c #0A4D85",
"4. c #064D8A",
"5. c #0B4F89",
"6. c #0E4E88",
"7. c #07508B",
"8. c #08548D",
"9. c #15548B",
"0. c #075594",
"q. c #075797",
"w. c #095691",
"e. c #0A5994",
"r. c #07599A",
"t. c #0B5D9A",
"y. c #135A95",
"u. c #165994",
"i. c #125E9B",
"p. c #285687",
"a. c #2F5B8D",
"s. c #0A619E",
"d. c #13619D",
"f. c #1C639C",
"g. c #346489",
"h. c #25679C",
"j. c #366698",
"k. c #085EA1",
"l. c #135EA1",
"z. c #0B64A4",
"x. c #0A67AA",
"c. c #1464A3",
"v. c #1867A5",
"b. c #146AAB",
"n. c #196BAC",
"m. c #116FB1",
"M. c #1674B3",
"N. c #286DA4",
"B. c #2E72A5",
"V. c #2A73AB",
"C. c #3578AA",
"Z. c #347AAC",
"A. c #307BB3",
"S. c #4D6D92",
"D. c #526D96",
"F. c #69758C",
"G. c #797B84",
"H. c #4E7AA9",
"J. c #997D85",
"K. c #3582B7",
"L. c #3D83B2",
"P. c #3984B9",
"I. c #748394",
"U. c #4186B3",
"Y. c #448AB6",
"T. c #458DBA",
"R. c #498EBA",
"E. c #558DB1",
"W. c #4791BD",
"Q. c #4C93BD",
"!. c #6E90AD",
"~. c #72ABBF",
"^. c #3593C8",
"/. c #4C97C2",
"(. c #539BC3",
"). c #549AC4",
"_. c #59A4C9",
"`. c #5AAFD1",
"'. c #62ACCD",
"]. c #6BB3D0",
"[. c #69B6D4",
"{. c #75C5DD",
"}. c #7BC9E0",
"|. c #8A8687",
" X c #948884",
".X c #928D8B",
"XX c #98918C",
"oX c #878A96",
"OX c #8F919A",
"+X c #999593",
"@X c #989799",
"#X c #A68A86",
"$X c #A79788",
"%X c #A69A93",
"&X c #A29D9B",
"*X c #B9AD8E",
"=X c #A6A19C",
"-X c #8793A8",
";X c #979BA5",
":X c #A09FA0",
">X c #9DA0A7",
",X c #9DA2AC",
"<X c #9DA4B2",
"1X c #A6A5A7",
"2X c #AAA6A4",
"3X c #ACABAB",
"4X c #B3ACAA",
"5X c #B6B2AE",
"6X c #A6AAB4",
"7X c #ADB0B8",
"8X c #B5B3B3",
"9X c #B7B6B8",
"0X c #BCBBBB",
"qX c #CBB290",
"wX c #E5BD85",
"eX c #C3BDB4",
"rX c #D7C695",
"tX c #EAD18F",
"yX c #FAE69A",
"uX c #D7C8A9",
"iX c #C5C1BB",
"pX c #D5CCB6",
"aX c #E4D2AE",
"sX c #F9ECAE",
"dX c #A3B5C1",
"fX c #BBBDC2",
"gX c #82C5DD",
"hX c #BEC1C7",
"jX c #8CCFE3",
"kX c #C4C3C2",
"lX c #C8C7C7",
"zX c #CCCBCB",
"xX c #D2CECC",
"cX c #D6D2CA",
"vX c #CED0D3",
"bX c #D5D4D3",
"nX c #D9D8D6",
"mX c #DDDCDB",
"MX c #E2DACA",
"NX c #E1DEDB",
"BX c #F3EBCF",
"VX c #E5E0D7",
"CX c #E2E1DF",
"ZX c #E0DFE1",
"AX c #E5E3E2",
"SX c #E8E7E5",
"DX c #E9E9E6",
"FX c #EDECEA",
"GX c #F0EFED",
"HX c #F3F2EF",
"JX c #F5F4F1",
"KX c #F8F7F6",
/* pixels */
"2.y y.2.2.8.8.8.8.f.(.t.3.8.9.7.3.7.8.8.8.7.y y y 2.4.C.g.2.2.0.4.4.8.v._.e.8.e.Z.P.N.w.w.8.2.2.u.L.6.y 3.y y 2.4.2.2.c.P.i.8.7.",
"2.3.l.8.7.8.8.8.7.L.`.T.c.l.l.l.8.7.8.8.8.6.y y y 7.Z.a 8 d 9 4.5.2.8._.U.8.8.8.4.l.Z./.Q.Y.Y.Y.Q.7.y 8.y 2.u.u.l.i.b.v.w.Z.w.8.",
"8.w.n.v.t.8.8.8.f.K.v.Z.A.N.5.5.e.e.8.8.8.7.y y y B.S.d % p 9 3.2.u.H.'.e.8.8.2.u.0.8.w.N.Y.'.{.(.8.u.y 3.e.2.2.4.q.0.4.8.h.Z.e.",
"w.w.v.8.c.c.d.R.R.t.2.3.l.N.N.5.3.d.e.8.8.8.y 2.h.W.g.g.& j j.Z.h.U.{.P.8.8.8.4.i.0.0.w.8.8.e.[._.n.n.d.w.2.2.7.0.0.4.0.8.8.C.U.",
"'.R./.U.U./.(.Z.w.4.2.4.5.4.6.N.U.f.v.t.f.C.C.B.`.(.B.9.7 2 9 5.f.B.'.L.8.8.8.t.i.i.i.r.8.8.w.(._.i.w.8.8.8.8.8.q.w.q.8.8.8.w.(.",
"Q.B.B.A.B.y.8.7.8.8.4.0.0.4.2.3.U._.B.P.A.N.4.i.V.K.2.y 2.b 9 y t 4.B.V.v.d.v.e.2.8.w.c.b.w.8.B.'.e.8.8.8.8.8.r.8.8.r.q.8.8.8.L.",
"U.w.8.e.y.8.2.2.2.7.r.w.4.y.4.5.8.Z.h.8.i.c.8.2.v.L.y i G.R X.x t 7.h.e.8.d.e.8.8.q.8.8.e.b.r.q.'.N.7.8.8.q.r.8.8.8.w.r.8.8.8.d.",
"U.w.8.8.i.w.2.2.2.4.4.4.8.l.0.0.8.q.L.e.8.8.2.2.B.d.v o.%X} =.V l 3.Z.8.8.8.8.8.8.r.8.8.8.8.c.r././.k.q.r.r.8.8.8.8.8.w.e.8.8.8.",
"Z.f.8.8.8.i.4.3.4.2.2.2.7.d.e.e.q.0.B.C.w.0.2.4.N.2. Xo..X4XXXb 5 p.(.8.8.8.8.7.9 0.0.8.8.8.w.l.h.Q.t.e.0.r.r.q.w.8.8.8.r.8.7.7.",
"B.Y.8.8.8.w.i.q.2.2.2.2.7.d.e.8.0.k.k.L.e.q.0.N.N.2.F.cX2XiX*Xm X.e.].e.3.3.3.2.p 3.p.8.8.3.8.n.e.R.w.d.8.8.8.0.q.q.8.0.0.4.4.4.",
"N.`.e.w.q.r.x.k.8.4.7.8.8.c.8.8.u.u.l.P.d.i.t.T.k.q.oX9X8X8X8X9X@Xh.'.e.9.u i g.q s d v S.v a.D.a.H.d.w.c.8.8.8.8.0.r.r.2.y 2.2.",
"h.T.N.8.7.8.w.c.0.8.8.8.s.e.9.h.N.j.j.H.A.N.P.K.z.k.p.g.` z z k T T ~ T R T T h h U 5 k z f T T l U R R z x 8.8.8.8.8.q.2.y y 2.",
"B.i.L.u.i.i.y.c.q.w.0.l.d.u.j.j.D.H.H._.).U.E.D.F.n T R U h T &X=X6X3X6X3XhX7XiXiX9XlXbXkXnXvXkXxXhX,XC.j.e.8.8.8.8.8.8.2.y y 2.",
"B.3.U.h.2.e.n.c.0.0.e.l.u.j.S.H.H.H.F.-XOX^ U z / +XfXzXxXFXZXGXCXSXAXSXmXSXbXCXnXbXNXnXnXAXnXmXDXhXi h.(.d.8.8.8.8.8.8.4.2.2.y.",
"5.y 9.Q.u.2.i.c.8.z.n.u.h.D.H.H.F.^ T z ^ 9XxXnXVXuXaXaXaXBXCXCXHXCXGXmXFXCXvXnXKXFXnXbXAXmXZXDX9XC.w.d.V._.L.e.8.8.8.8.w.2.B.L.",
"y 2.2.h.L.2.8.c.l.b.n.p.j.F.m R z @XlXAXZXAXBX-.-.>.>.-.-.>.wXbXJXmXCXnXAXAXAXNXFXKXAXDXAXmXDXfXy.Z.V.y.8.f.R./.L.Z.h.t.V./.Z.2.",
"5.y y y L.L.8.8.q.n.l.a.! L ..5XnXAXAXFXFXuX>.-.#.#.#.@.@.@.@.*.xXDXCXCXmXVXHXVXDXbXAXHXmXGXvXx x S.E.p.5.8.8.0.q.e.h.B./.[.T.N.",
"Y.C.4.2.L.L.W.V.k.m.A.A.-XlXZXZXJXnXbXnXqX_ +.#.@.@.*.&.&.=.&.&.=.=.qXaXuXVXCXHXHXCXHXCXGXDXm d s x v d k g j j x 9.8.w.c.n.f.C.",
"4.h.T.Y.L.2.d.Q.'._.).R.vXAXAXnXbXNXuXqXuXuX%XlXFXHXkXj a @XDXKXKXZXnXVXcXcXCXHXSXFXHXCXJXvXzXhXzXxXhXfX6X6XOXp.3.8.8.r.n.n.v.i.",
"d.5.y.(.B.8.w.s.l.A.A./.DXAXSXDXeXaXZXmXhXj p J.KXKX< $ $ $ n KXKXnXHXFXFXHXSXHXCXJXCXJXAXZXHXCXGXnXSXnXzXbX-Xi.8.8.8.x.l.e.w.e.",
"8.d.8.d.L.s.e.s.k.n.V.-XAXSXDXJXSXDXSXKXb d 2 8XKXKX&X< < $ n KXAXZXJXAXJXCXJXHXSXJXCXHXnXNXFXnXZXkX9X0X2X4Xa.e.i.0.k.b.8.8.8.8.",
"8.8.d.w.R.d.s.s.x.n.V.fXAXAXAXJXSXAXmXKX@Xb 3XmX9XFXGXlX:X4XSXCXSXZXJXAXHXCXJXCXJXCXHXCXnXxXxX9X9X4X2X5X2X&Xw.w.r.x.m.s.8.8.8.8.",
"8.8.w.s.B.B.e.s.x.n.V.vXSXAXAXFXGXSXCXnXFXFXDX0Xm NXFXFXFXDXnXvXFXNXGXNXHXCXJXCXJXCXHXzX0X8X0X4X3X8X2X4X&XOXk.r.w.w.r.8.8.8.8.8.",
"8.8.s.d.B.L.s.s.x.l.V.ZXSXAXAXAXDXbXbXnXzXkXxXvXxXxXbXbXkXxXxXzXZXbXNXNXmXFXFXCXFXCXNX0X5X3X0X4X2X4X:X2X&XI.0.w.w.w.q.e.8.8.8.8.",
"8.8.e.n.L.c.t.z.z.x.Y.CXAXZXbXbXZXlXlXbX0XlXzXmXzXnXzXnXkXkXzXzXzXxXvXmXxXZXnXSXnXDX0X0X3X3X9X2X2X4X&X2X@XG.q.w.8.8.0.0.8.8.8.8.",
"8.w.d.s.T.t.t.x.x.x.V.ZXnXxXlXxXvX8XzXiX8XzX9XkX8XlX9XlXlXkXkX0XlXkXeXbXkXnXzXNXzXmX3X5X2X2X4X@X@X@X.X+X.XF.e.e.w.w.8.q.8.8.7.8.",
"y d.8.B.Q.w.r.k.z.z.z.zXlXlXkXxX9XlX3XiX;X,X6X7X6X7X6X3X1X8XeX8X9XlX4XxXkXxX0XxXkXlX5X@X+X=X+XXX%X.X|.XX|.G.w.w.w.8.8.q.8.2.y 2.",
"3.8.y R.N.0.w.0.u.t.c.fX0XhXeX0X@X#X3X8X<X6X;X,X,X,X<X6X,X7X4X1X4X1X7X9X0XlXeX0XkX3X=X@X&X@X+X+X+X.X|..X|.^ w.w.w.w.8.k.8.y y y ",
"w.y B.`.d.8.2.4.4.w.t.6XfX8X5X;X%XJ _ 2X>X6X6X#X1X6XkX6X,X5X2X2X=X3X;X;X@X1X8X9XhXOXT z n ( ^  X.X.X.X|.` J.j.0.0.w.0.k.q.2.y y ",
"f.Y.`.`.q.2.2.2.4.4.q.-X%X1X>X,XqX_ J ( 1X<X3X( } 7XKXzX@X4X&X:X=X3X+X;X<X<X:X1X8XJ.l V $ Z ; G , k n m ..n F.k.r.w.q.k.q.0.2.2.",
"W.L.P./.q.2.2.2.2.4.w.D.E ;X6X1XwXW J G &X5X$X_ _ 4XFXAXnX3X@X%X=X=X+XOX;XOX2X2X4Xm f f , V 1 1 - , : , 2 b m ~._.Q.P.A.V.V.K.T.",
"w.y y.L.e.4.4.2.2.2.w.J._ o.OX%X+.E E G %X4X#.I J %XlXfXhXOX+X+X@X@X+XoXoX+X2X&X4XF.5 I 1 C 1 - * * * * o g.~.S.a.L.L.Z.B.h.h.8.",
"3.3.3.C.2.3.2.2.2.2.H.wX-.F $XaXsXsXtX&.{ #._ J J @XG.J.|. X X.X+XXX.X+XXX@X=X@X2Xv h Q 1 1 > * * o o o o d.gXz.s.e.e.w.8.y y y ",
"y 8.3.B.2.5.2.2.2.6.-XaX-.qXHXsXsXsXpX%X$.E F J P G.U.S.a b m .X|.|. X+X.X.X@XXX=XS.3 c - - * * o *   * o d.gXn.s.e.e.w.w.7.y y ",
"y u.7.B.2.y 5.3.4.<XGXpX#.uX*XX.aXyX9Xp O.} D G H |.7X0X4X~ > p.F.M |. X|.|.+X.X%XS.5 f o * % w p.0 7 *   Z.jXW.s.e.e.w.e.8.y y ",
"8.u.y.L.h.2.y 5.l.F.6XOXqXpXpXcXMXrXaXiX=.$.N H  .$.5 / o.5XzX6XD.b.S.I.....XX X@XD.4 q r a.x.x.m.M.m.l.r E.jX_.s.s.e.w.8.8.8.7.",
"e.7.d.Y.'.d.5.7.r.4.D.eXrXBXBXBXMXrXrX=.%.$.H J @.#.+._ E D ( pXlX<XH.m.S.....|.+XS.4 f.m.x.N.j.j.H.E.E.E.gXjX`.s.e.e.e.e.e.8.e.",
"7.8.v.'.}.[.L.e.q.a.qXqXaXMXpXpXrX*X=.$.$.[ 3 N I E G _ ) ( BXBXyXtX0X!.d.p.M ..XXv 2 !.I.H.E./.`._.^.M.Y.].{.[.s.s.e.e.8.8.8.e.",
"w.e.(.}.}.}.{./.B.2XtX-.=.uXuXqX$XO. . .[ ' - D G J E H ) wXsXaXtXyX,.fX-Xj.F.m +Xb O + & v F.p.n.x.m.m.r.k.P.[.K.e.e.8.e.8.e.e.",
"(.(.'.(.Y.B.t.k.-XpX_ +.{ =.O.$Xo.[ [  .' H 1 G F W  .H I ,.sXrX*XrX=.o.;XzX0XOXOXM O = | k o. .L x m.m.z.r.q.V._.h.8.e.8.e.d.L.",
"d.w.c.i.w.8.q.w.I.tX} J D | %.$.$.[ [ ' H G X . 6 =.;.| C | tXO.rXqX| o.;XOX;XOXOXM 4 S +.n o.[ V S x b.m.9.s.s.v.(.d.8.8.K._.E.",
"8.7.5.9.4.0.k.0.m tXO.W F S {  .$.[ ' S _ @.U 2  .:.%.] lXeX5X2 =.] [ o.,Xm ,X;X;X/ h h R f R Y 1 5 > i i e i.e.8.h.'.(.'.`.K.y ",
"w.8.4.q.4.4.8.q.S.qX+X=X[ @.E - 5 5 - N J -.:.j ,.<.<.R bXSXeX+XzXd X.|.>X> J.6X>Xj f j ! m *X|.X.d 2 < u.F.r.s.s.e.L.}.{.d.y 8.",
"w.0.0.r.y 2.8.8.9.iX0X2X%.#.D D b X D G G } tX-.:.:.;.3 I J.8XnX9XhX|.+X:X* M 6X$XqXqXrXqX*X4 b +XM g 8 z.9.x.s.z.e.K.{.L.e.s.s.",
"8.4.4.u.y 2.7.8.w.OX6X#X+.E ) R 8 . ; A J G G _ _ } H V P P D ( 0XNXfX6XOX> J.OX~ rXrXrXBXuXP I p m b e d.x.x.x.M.m.K.{.s.8.8.8.",
"8.8.4.8.3.2.7.8.0.<X^ E G E X.X.5 & < % 3 | ( 4X:X$.3 P Z P } F V ^ 1X7XM , oXXXh qXo.{ *XcX/ U A < i p.f.x.x.x.m.s.v.(.8.8.8.8.",
"8.8.8.2.y.2.7.8.w.F.2X=.o.NX=X .<.,.:.,.1.,. .eXDX8X! Q P %.1.%.B V / 9Xd 1 J.;XX.o.qX` ` DX1X4 f A q c.x.s.z.s.s.s.s.L.8.8.8.8.",
"8.8.e.7.t.d.8.8.9.g.eX;.cX0X{ ,.<.,.:.,.<.,.:. .&XDXmXvX#X%.,.$.3 N ;X1X* V ^ 6X~ X.*X` X.DXOX1 k 4 B h.x.z.s.d.w.w.B.L.8.8.8.8.",
"c.v.t.w.8.n.t.8.8.8.lX%XbX7X8X$.,.1.%.1.<.,.[ 3 ..AXAXZXJ.P H S N ! dXm 1 j L 6X*XXXo.$X1XlXj V k % > h.K.x.s.s.e.L.W.(.7.8.8.8.",
"w.8.z.e.8.d.n.c.S.vXNXZX,XnX! P A *XO.| Y 3 B K I KXhX0X/ C C V B oXOXJ.B j C OX1Xn s d m G.f V j > ; 8 z.x.8.K./.L.2.L.B.7.8.e.",
"8.w.r.i.8.w.n.t.!.FXFXAX>X8X{ W P FXFXNXk P P Z P 5X>XnXDX! V V c -Xb vXB L K L I.. O & m d 1 B b k a $ 9.s.L.W.f.y.y y h.U.d.e.",
"e.w.r.8.i.e./.Q.U.E.dXFX;Xk ,.%.C SXGXAXL C P $.$.F L mXGXxX1 f oXG.5 lX#XK ! A > X R h p 1 < f s g h < I.].L.8.w.w.y y t h.`.C.",
"'.(.P.L.(.(._.Z.q.4.!.vX1Xk $. .V NXFXFXk Z W <.,.H C #XFXbXG.oXJ.l &.XXmXI k 1 $ 4 S U % > B k 2 p 2 2 !.{.w.y y 8.y y 8.8.Q.{.",
"}.'.T.Z.e.n.n.d.8.4.a.g.oXvXz 3 N xXFXGX^ C F %.$.3 V V 1X;XI.oXe R &.} 8XlXL V # 5 A S % ; L j p & & & E.Q.8.y y w.3.8.8.d.B.{.",
"B.q.e.8.8.d.n.e.8.8.u.5.4.;XbX~ 1 4XSXDX:XV C N 1 N V B m G.oXp p j &.*.} 0XxXL # S 3 U # f |.& p p & 7 E.R.8.8.8.d.8.8.8.w.s._.",
"8.q.8.8.8.w.b.t.8.8.N.5.i.3.|.mX3XJ.lXxX8X1 V V N B k G.oXG.T W & s z } } Y +X3X@ U 1 4 # M 2 2   @ . i R.Y.8.8.8.d.8.8.d.8.u.8.",
"8.r.r.8.w.8.v.s.8.8.C.i.u.2.u j 4X6X;XOXoXb n ^ m G.G.J.T { o.} Y % s z { { W U . 4 , 2 . = + O X # 7 8.P.Q.w.8.8.d.e.v.e.d.B.8.",
"8.r.r.r.8.8.e.v.8.0.Q.n.i.3.2.6.< a M oXOX;X;XoXF.b z Y W } } { { 6 % p p h U 5 # : 4 :   + O # . . t 5.y.(.w.8.8.e.n.n.y.Q.y.8.",
"e.8.8.8.e.8.8.s.v.q._.M.n.e.7.7.8.x 2 , ; : , , : 5 W Y Y Y ' Y Y Y U , & e < 2 $ . + . # # O   @ u y y 3._.V.8.8.8.e.M.(.B.8.8.",
"8.4.2.4.8.e.0.8.e.c.'.d.d.d.8.8.r.r.p.q : : : , , : 5 U U R U H S 5 5 5 2 $ # # # . . . O .   7 t y 7.4.L.`.`.C.8.e.f._.(.s.e.q.",
"d.y.7.2.4.8.8.e.r.t._.r.q.c.q.q.r.w.8.8.6.e & + : : = : 5 5 4 2 4 4 , 2 , 4 : : + + + o X @ r y y y y Z.(.h.8.N.V.T.[./.r.b.e.e.",
"y y u.2.2.8.8.8.q.e.Q.e.y.e.8.7.q.8.8.8.8.8.5.6.r r r 0 # & : 2 : , , : : = = = + + 8 9 9.2.y y y y u.`.N.2.y 4.2.3.L.N.8.v.e.e.",
"y y 3.3.y 8.8.8.8.r.U.8.d.4.7.7.r.8.8.8.8.7.2.y 3.3.t t L.{.L.K.y.h.E.].].E.u 9.e.8.8.d.w.3.y y y y W.Y.5.2.y 2.2.2.8.Q.s.v.d.3.",
"y 2.8.3.y 8.8.8.8.y.Y.w.5.y y 3.w.8.8.8.8.7.y y y y 3.u._.L.L.L.E.(.(.'.{._.R.C.c.8.d.e.8.8.y y y N.Q.6.4.y y y 4.y 2.N.K.v.8.3."
};
